<?xml version="1.0" encoding="UTF-8" standalone="no"?>
<!-- Created with Inkscape (http://www.inkscape.org/) -->

<svg
   xmlns:dc="http://purl.org/dc/elements/1.1/"
   xmlns:cc="http://creativecommons.org/ns#"
   xmlns:rdf="http://www.w3.org/1999/02/22-rdf-syntax-ns#"
   xmlns:svg="http://www.w3.org/2000/svg"
   xmlns="http://www.w3.org/2000/svg"
   xmlns:sodipodi="http://sodipodi.sourceforge.net/DTD/sodipodi-0.dtd"
   xmlns:inkscape="http://www.inkscape.org/namespaces/inkscape"
   width="25.665001mm"
   height="25.159321mm"
   viewBox="0 0 25.665001 25.159322"
   version="1.1"
   id="svg3624"
   inkscape:version="0.92.4 (5da689c313, 2019-01-14)"
   sodipodi:docname="apply.svg">
  <defs
     id="defs3618" />
  <sodipodi:namedview
     id="base"
     pagecolor="#ffffff"
     bordercolor="#666666"
     borderopacity="1.0"
     inkscape:pageopacity="0.0"
     inkscape:pageshadow="2"
     inkscape:zoom="3.959798"
     inkscape:cx="-37.033501"
     inkscape:cy="44.949524"
     inkscape:document-units="mm"
     inkscape:current-layer="layer1"
     showgrid="false"
     inkscape:window-width="1600"
     inkscape:window-height="838"
     inkscape:window-x="-8"
     inkscape:window-y="-8"
     inkscape:window-maximized="1" />
  <metadata
     id="metadata3621">
    <rdf:RDF>
      <cc:Work
         rdf:about="">
        <dc:format>image/svg+xml</dc:format>
        <dc:type
           rdf:resource="http://purl.org/dc/dcmitype/StillImage" />
        <dc:title />
      </cc:Work>
    </rdf:RDF>
  </metadata>
  <g
     inkscape:label="Layer 1"
     inkscape:groupmode="layer"
     id="layer1"
     transform="translate(-115.94687,-127.33833)">
    <g
       id="g4282"
       transform="matrix(0.16663273,0,0,0.16334393,118.11488,129.46398)">
      <path
         id="path4250"
         d="M 127.7,124.95 116,106.06 c 0,0 0,0 0,-0.06 V 40 a 2,2 0 0 0 -2,-2 h -10.38 a 2,2 0 1 0 0,4 H 112 v 62 H 16 V 42 h 8.62 a 2,2 0 1 0 0,-4 H 14 a 2,2 0 0 0 -2,2 v 66 c 0,0 0,0 0,0.06 L 0.3,124.95 A 2,2 0 0 0 2,128 h 124 a 2,2 0 0 0 1.7,-3.05 z"
         inkscape:connector-curvature="0"
         style="fill:#546565;fill-opacity:1" />
      <path
         id="path4252"
         d="m 98,24.11 a 2.07,2.07 0 0 0 -0.59,-1.42 l -22,-22.1 A 2,2 0 0 0 74,0 H 34 a 4,4 0 0 0 -4,4 v 28 a 2,2 0 0 0 2,2 h 64 a 2,2 0 0 0 2,-2 z M 76,6.86 l 7.59,7.62 7.59,7.62 H 76 Z"
         inkscape:connector-curvature="0"
         style="fill:#ff82d0;fill-opacity:1" />
      <path
         id="path4254"
         d="M 96,38 H 32 a 2,2 0 0 0 0,4 h 64 a 2,2 0 0 0 0,-4 z"
         inkscape:connector-curvature="0"
         style="fill:#ff82d0;fill-opacity:1" />
      <path
         id="path4256"
         d="M 96,46 H 32 a 2,2 0 0 0 0,4 h 64 a 2,2 0 0 0 0,-4 z"
         inkscape:connector-curvature="0"
         style="fill:#ff82d0;fill-opacity:1" />
      <path
         id="path4258"
         d="M 96,54 H 32 a 2,2 0 0 0 -2,2 v 40 a 4,4 0 0 0 4,4 h 60 a 4,4 0 0 0 4,-4 V 56 A 2,2 0 0 0 96,54 Z M 69.74,85 A 2,2 0 0 1 68,86 h -4 v 4 a 2,2 0 0 1 -4,0 v -4 h -4 a 2,2 0 0 1 -1.71,-3 l 6,-10 a 2,2 0 0 1 3.43,0 l 6,10 a 2,2 0 0 1 0.02,2 z M 85,76 a 4,4 0 0 1 -4,4 H 72.6 L 70.2,76 H 81 V 66 H 47 v 10 h 6.8 l -2.4,4 H 47 A 4,4 0 0 1 43,76 V 66 a 4,4 0 0 1 4,-4 h 34 a 4,4 0 0 1 4,4 z"
         inkscape:connector-curvature="0"
         style="fill:#ff82d0;fill-opacity:1" />
      <polygon
         id="polygon4260"
         points="59.53,82 64.47,82 62,77.89 "
         style="fill:#ff82d0;fill-opacity:1" />
    </g>
  </g>
</svg>
