<?xml version="1.0" encoding="UTF-8"?>
<!DOCTYPE svg PUBLIC "-//W3C//DTD SVG 1.1//EN" "http://www.w3.org/Graphics/SVG/1.1/DTD/svg11.dtd">
<!-- Creator: CorelDRAW X8 -->
<svg xmlns="http://www.w3.org/2000/svg" xml:space="preserve" width="8in" height="8in" version="1.1" style="shape-rendering:geometricPrecision; text-rendering:geometricPrecision; image-rendering:optimizeQuality; fill-rule:evenodd; clip-rule:evenodd"
viewBox="0 0 8000 8000"
 xmlns:xlink="http://www.w3.org/1999/xlink">
 <defs>
  <style type="text/css">
   <![CDATA[
    .fil5 {fill:none;fill-rule:nonzero}
    .fil1 {fill:#FEFEFE;fill-rule:nonzero}
    .fil6 {fill:#004A29;fill-rule:nonzero}
    .fil0 {fill:#004A29;fill-rule:nonzero}
    .fil3 {fill:#AFCD5B;fill-rule:nonzero}
    .fil2 {fill:#DADDDF;fill-rule:nonzero}
    .fil4 {fill:white;fill-rule:nonzero}
   ]]>
  </style>
 </defs>
 <g id="Layer_x0020_1">
  <metadata id="CorelCorpID_0Corel-Layer"/>
  <path class="fil0" d="M4000 6551c-29,0 -45,0 -342,-195 -156,-103 -392,-266 -630,-457 -625,-503 -942,-942 -942,-1303l0 -2636 79 -21c16,-5 1620,-428 1805,-482l29 -8 1915 511 0 2636c0,361 -317,800 -942,1303 -238,191 -474,354 -630,457 -297,195 -313,195 -342,195z"/>
  <path class="fil1" d="M2297 2122l0 0 0 2474c0,613 1326,1505 1703,1728 377,-223 1703,-1115 1703,-1728l0 -2474 -1702 -454c-247,69 -1389,371 -1704,454z"/>
  <path class="fil2" d="M2649 4523l-324 33 0 -67 324 34zm1856 1252l63 120c-8,6 -15,12 -23,17l-40 -137zm748 -1758l422 -222 0 101 -422 121zm-2506 1011l-172 90c-9,-11 -17,-22 -26,-33l198 -57zm10 -1034l-432 -134 0 -104 432 238zm2674 1116c-8,10 -16,21 -25,31l-163 -90 188 59zm-1960 656l-40 128c-7,-5 -14,-10 -22,-16l62 -112zm1269 -113l55 68c-5,4 -10,8 -14,11l-41 -79zm-1870 -391l-95 77c-6,-6 -12,-12 -18,-18l113 -59zm-192 -1016l-353 -36 0 -76 353 112zm2644 553l289 30c-8,18 -17,35 -26,53l-263 -83zm-1598 1046l-25 239c-14,-10 -28,-19 -42,-29l67 -210zm1217 -3897l281 75 -693 1257 412 -1332zm-1681 1444l-935 -1152 0 -96c59,-16 148,-39 255,-67l680 1315zm1870 391l545 -442 0 160 -545 282zm-709 -1974l274 73 -419 1318 145 -1391zm-926 1461l-664 -1260c89,-23 184,-48 279,-74l385 1334zm2006 -1173l174 47 0 219 -903 1051 729 -1317zm-1739 1096l-381 -1329c97,-26 190,-51 275,-73l106 1402zm-871 558l-566 -314 0 -173 566 487zm154 -184l-720 -586 0 -297 720 883zm1910 0l720 -883 0 297 -720 586zm-954 -1870l146 39 -147 1436 -147 -1434c63,-17 114,-31 148,-41zm-1331 3064l-276 79c-9,-19 -17,-38 -25,-56l301 -23zm1634 1320c-16,11 -31,22 -46,31l-20 -260 66 229zm1026 -1797l345 -99 0 73 -345 26zm-117 1068c-6,6 -12,11 -17,17l-87 -75 104 58zm-1985 279l-41 75c-5,-3 -9,-7 -14,-11l55 -64zm2123 -1108l324 -34 0 67 -324 -33zm-1351 1753c-12,-7 -25,-15 -39,-23l39 -380 39 380c-14,8 -27,16 -39,23zm-955 -798l-53 65c-4,-4 -9,-8 -13,-12l66 -53zm1910 0l66 53c-4,4 -9,8 -13,12l-53 -65z"/>
  <path class="fil3" d="M6084 3094l-4168 0 0 -641c0,0 1038,-357 2084,-357 1068,0 2084,357 2084,357l0 641z"/>
  <polygon class="fil4" points="2175,2636 2204,2715 2284,2745 2204,2774 2175,2854 2146,2774 2066,2745 2146,2715 "/>
  <polygon class="fil4" points="5827,2636 5856,2715 5935,2745 5856,2774 5827,2854 5797,2774 5718,2745 5797,2715 "/>
  <polygon class="fil5" points="4092,3599 4057,3491 4149,3425 4035,3425 4000,3317 4000,3533 "/>
  <polygon class="fil5" points="3851,3425 3943,3491 3908,3599 4000,3533 4000,3317 3965,3425 "/>
  <path class="fil6" d="M4876 4055l0 374c0,21 -22,37 -37,37 -20,0 -36,-16 -36,-37l0 -859c0,-10 4,-19 10,-26 6,-5 13,-9 21,-10l-834 -342 0 125 35 108 114 0 -92 66 35 108 -92 -66 0 168c26,0 49,11 66,28 16,16 27,39 27,65l0 2185c56,-35 122,-78 196,-128l0 -2057c0,-26 10,-49 27,-65 16,-17 40,-28 65,-28 51,0 93,42 93,93l0 1928c177,-127 372,-278 552,-439l0 -926c0,-18 7,-35 19,-46 12,-12 28,-20 46,-20 36,0 66,30 66,66l0 802c46,-46 91,-92 133,-138l0 -795 -414 -171z"/>
  <path class="fil3" d="M3908 3599l35 -108 -92 -66 114 0 35 -108 0 -125 -834 342c8,1 15,5 20,10 7,7 11,16 11,26l0 859c0,21 -16,37 -36,37 -15,0 -37,-16 -37,-37l0 -374 -414 171 0 795c42,46 87,93 133,138l0 -802c0,-36 30,-66 66,-66 18,0 34,8 46,20 12,11 19,28 19,46l0 926c180,161 375,312 552,439l0 -1928c0,-51 42,-93 93,-93 25,0 49,11 65,28 17,16 27,39 27,65l0 2057c74,50 140,93 196,128l0 -2185c0,-51 42,-93 93,-93l0 -168 -92 66z"/>
  <path class="fil0" d="M2858 2680c0,18 -6,34 -17,48 -11,13 -25,19 -40,19 -91,0 -182,0 -273,0 0,-64 0,-128 0,-191 0,-64 0,-128 0,-192 91,-22 182,-43 273,-61 15,-3 29,1 40,12 11,11 17,26 17,44 0,24 0,47 0,71 0,15 -4,29 -11,41 -8,13 -17,22 -29,27 12,3 21,10 29,21 7,11 11,24 11,39 0,20 0,41 0,61 0,20 0,41 0,61zm-87 -223c0,-18 0,-37 0,-55 -52,8 -104,17 -157,27 0,17 0,34 0,51 53,-8 105,-16 157,-23zm0 198c0,-35 0,-70 0,-105 -52,5 -104,10 -157,15 0,33 0,65 0,97 53,-2 105,-5 157,-7zm488 16c0,21 -6,39 -17,54 -11,15 -24,22 -40,22 -72,0 -144,0 -216,0 -15,0 -29,-7 -40,-20 -11,-14 -17,-30 -17,-49 0,-55 0,-110 0,-165 0,-55 0,-110 0,-165 0,-19 6,-36 17,-51 11,-16 25,-25 40,-28 72,-12 144,-22 216,-33 16,-2 29,4 40,18 11,14 17,31 17,52 0,61 0,122 0,182 0,61 0,122 0,183zm-86 -31c0,-48 0,-97 0,-146 0,-49 0,-97 0,-146 -53,6 -105,11 -157,18 0,47 0,93 0,140 0,46 0,93 0,139 52,-1 104,-3 157,-5zm553 107c-32,0 -65,0 -97,0 -12,-41 -23,-82 -35,-123 -50,0 -99,1 -149,2 -12,41 -23,81 -35,121 -32,0 -64,0 -97,0 26,-87 52,-176 77,-266 25,-90 51,-181 77,-273 35,-3 70,-6 106,-8 25,89 51,180 76,271 26,92 52,184 77,276zm-164 -238c-7,-25 -14,-50 -21,-75 -7,-24 -14,-49 -21,-73 -7,25 -15,50 -22,75 -6,25 -14,51 -21,76 28,-1 57,-2 85,-3zm548 238c-29,0 -58,0 -86,0 0,-42 0,-84 0,-126 0,-42 0,-84 0,-126 -53,-1 -105,-1 -157,0 0,42 0,84 0,126 0,42 0,84 0,126 -29,0 -58,0 -87,0 0,-93 0,-186 0,-279 0,-93 0,-186 0,-279 91,-2 182,-3 273,-2 16,0 29,8 40,25 11,16 17,35 17,58 0,29 0,58 0,87 0,18 -4,35 -11,49 -7,15 -17,24 -28,30 11,5 21,15 28,29 7,15 11,31 11,50 0,38 0,77 0,116 0,39 0,78 0,116zm-86 -371c0,-24 0,-47 0,-71 -53,-1 -105,0 -157,1 0,23 0,47 0,71 52,-1 104,-1 157,-1zm487 292c0,21 -5,40 -16,56 -12,15 -25,23 -41,23 -90,0 -181,0 -272,0 0,-93 0,-186 0,-279 0,-93 0,-186 0,-279 91,4 182,9 272,15 16,1 29,10 41,27 11,16 16,35 16,57 0,63 0,127 0,190 0,63 0,126 0,190zm-86 -36c0,-52 0,-105 0,-157 0,-53 0,-105 0,-158 -53,-2 -105,-5 -157,-7 0,53 0,107 0,160 0,54 0,107 0,160 52,1 104,1 157,2zm244 115c-28,0 -57,0 -86,0 0,-88 0,-177 0,-265 0,-89 0,-178 0,-266 29,3 58,5 86,8 0,88 0,175 0,262 0,87 0,174 0,261zm402 0c-29,0 -57,0 -86,0 -27,-46 -53,-93 -79,-141 -27,-49 -53,-99 -79,-149 0,49 0,97 0,145 0,49 0,97 0,145 -29,0 -58,0 -86,0 0,-85 0,-171 0,-257 0,-86 0,-171 0,-257 28,4 56,7 85,11 26,52 53,102 79,153 26,50 53,99 79,147 0,-46 0,-92 0,-138 0,-46 0,-92 0,-139 29,5 58,10 87,14 0,78 0,156 0,233 0,78 0,156 0,233zm401 0c-91,0 -182,0 -273,0 -16,0 -29,-6 -40,-19 -12,-13 -17,-29 -17,-48 0,-53 0,-106 0,-159 0,-53 0,-106 0,-159 0,-19 5,-33 17,-44 11,-11 24,-15 40,-12 91,17 182,37 273,58 0,27 0,54 0,81 -81,-14 -163,-29 -244,-42 0,42 0,84 0,126 0,42 0,84 0,126 52,2 105,5 157,7 0,-32 0,-64 0,-96 -36,-4 -72,-7 -108,-11 0,-30 0,-60 0,-90 65,9 130,19 195,28 0,43 0,85 0,127 0,43 0,85 0,127z"/>
  <path class="fil0" d="M3008 2941c0,7 -2,13 -7,19 -5,5 -11,7 -18,7l-124 0 0 -37 110 0 0 -41 -84 0c-7,0 -13,-3 -18,-8 -5,-5 -8,-11 -8,-18l0 -44c0,-7 3,-13 8,-18 5,-5 11,-7 18,-7l123 0 0 36 -110 0 0 22 85 0c7,0 13,3 18,8 5,5 7,11 7,18l0 63zm149 26l-111 0c-7,0 -13,-2 -18,-7 -5,-6 -7,-12 -7,-19l0 -122c0,-7 2,-13 7,-18 5,-5 11,-7 18,-7l111 0 0 36 -97 0 0 100 97 0 0 37zm162 0l-39 0 0 -78 -71 0 0 78 -39 0 0 -173 39 0 0 58 71 0 0 -58 39 0 0 173zm161 -26c0,7 -3,13 -8,19 -5,5 -11,7 -18,7l-98 0c-7,0 -13,-2 -18,-7 -5,-6 -7,-12 -7,-19l0 -122c0,-7 2,-13 7,-18 5,-5 11,-7 18,-7l98 0c7,0 13,2 18,7 5,5 8,11 8,18l0 122zm-39 -11l0 -100 -71 0 0 100 71 0zm200 11c0,7 -3,13 -8,19 -5,5 -11,7 -18,7l-97 0c-7,0 -13,-2 -18,-7 -5,-6 -8,-12 -8,-19l0 -122c0,-7 3,-13 8,-18 5,-5 11,-7 18,-7l97 0c7,0 13,2 18,7 5,5 8,11 8,18l0 122zm-39 -11l0 -100 -71 0 0 100 71 0zm188 37l-111 0c-7,0 -13,-2 -18,-7 -5,-6 -8,-12 -8,-19l0 -147 39 0 0 136 98 0 0 37zm161 -26c0,7 -2,13 -7,19 -5,5 -11,7 -18,7l-124 0 0 -37 110 0 0 -41 -84 0c-7,0 -13,-3 -18,-8 -5,-5 -8,-11 -8,-18l0 -44c0,-7 3,-13 8,-18 5,-5 11,-7 18,-7l123 0 0 36 -110 0 0 22 85 0c7,0 13,3 18,8 5,5 7,11 7,18l0 63zm210 26l-111 0c-7,0 -13,-2 -18,-7 -5,-6 -8,-12 -8,-19l0 -122c0,-7 3,-13 8,-18 5,-5 11,-7 18,-7l111 0 0 36 -97 0 0 22 97 0 0 37 -97 0 0 41 97 0 0 37zm187 0l-50 0 -38 -53 -38 53 -50 0 63 -87 -63 -86 50 0 38 52 39 -52 49 0 -63 86 63 87zm160 -104c0,7 -3,13 -8,18 -5,5 -11,8 -18,8l-84 0 0 78 -39 0 0 -173 123 0c7,0 13,2 18,7 5,5 8,11 8,18l0 44zm-39 -11l0 -22 -71 0 0 22 71 0zm188 115l-111 0c-7,0 -13,-2 -18,-7 -5,-6 -8,-12 -8,-19l0 -122c0,-7 3,-13 8,-18 5,-5 11,-7 18,-7l111 0 0 36 -98 0 0 22 98 0 0 37 -98 0 0 41 98 0 0 37zm161 0l-39 0 0 -78 -71 0 0 78 -39 0 0 -173 124 0c7,0 13,2 18,7 5,5 7,11 7,18l0 27c0,6 -1,11 -5,15 -3,5 -7,8 -13,10 6,1 10,4 13,9 4,4 5,9 5,15l0 72zm-39 -115l0 -22 -71 0 0 22 71 0zm200 -22l-52 0 0 137 -39 0 0 -137 -58 0 0 -36 149 0 0 36zm162 111c0,7 -3,13 -8,19 -5,5 -11,7 -18,7l-123 0 0 -37 110 0 0 -41 -85 0c-7,0 -13,-3 -18,-8 -5,-5 -7,-11 -7,-18l0 -44c0,-7 2,-13 7,-18 5,-5 11,-7 18,-7l124 0 0 36 -110 0 0 22 84 0c7,0 13,3 18,8 5,5 8,11 8,18l0 63z"/>
 </g>
</svg>
