<?xml version="1.0" encoding="UTF-8" standalone="no"?>
<!-- Created with Inkscape (http://www.inkscape.org/) -->

<svg
   xmlns:dc="http://purl.org/dc/elements/1.1/"
   xmlns:cc="http://creativecommons.org/ns#"
   xmlns:rdf="http://www.w3.org/1999/02/22-rdf-syntax-ns#"
   xmlns:svg="http://www.w3.org/2000/svg"
   xmlns="http://www.w3.org/2000/svg"
   xmlns:sodipodi="http://sodipodi.sourceforge.net/DTD/sodipodi-0.dtd"
   xmlns:inkscape="http://www.inkscape.org/namespaces/inkscape"
   width="23.8125mm"
   height="25.135418mm"
   viewBox="0 0 23.8125 25.135419"
   version="1.1"
   id="svg8"
   inkscape:version="0.92.4 (5da689c313, 2019-01-14)"
   sodipodi:docname="class-size.svg">
  <defs
     id="defs2" />
  <sodipodi:namedview
     id="base"
     pagecolor="#ffffff"
     bordercolor="#666666"
     borderopacity="1.0"
     inkscape:pageopacity="0.0"
     inkscape:pageshadow="2"
     inkscape:zoom="4.7562233"
     inkscape:cx="11.125709"
     inkscape:cy="45.905542"
     inkscape:document-units="mm"
     inkscape:current-layer="layer1"
     showgrid="false"
     inkscape:window-width="1600"
     inkscape:window-height="838"
     inkscape:window-x="-8"
     inkscape:window-y="-8"
     inkscape:window-maximized="1"
     showguides="true"
     inkscape:guide-bbox="true">
    <sodipodi:guide
       position="17.343607,4.280032"
       orientation="0,1"
       id="guide2862"
       inkscape:locked="false" />
  </sodipodi:namedview>
  <metadata
     id="metadata5">
    <rdf:RDF>
      <cc:Work
         rdf:about="">
        <dc:format>image/svg+xml</dc:format>
        <dc:type
           rdf:resource="http://purl.org/dc/dcmitype/StillImage" />
        <dc:title />
      </cc:Work>
    </rdf:RDF>
  </metadata>
  <g
     inkscape:label="Layer 1"
     inkscape:groupmode="layer"
     id="layer1"
     transform="translate(589.0921,240.91043)">
    <g
       id="g3919">
      <path
         style="fill:#004a29;fill-opacity:1;stroke-width:0.06669363"
         inkscape:connector-curvature="0"
         d="m -580.78552,-240.57696 h 14.20581 v 9.53732 h -14.20581 v -3.3865 c -0.11384,0.0438 -0.22509,0.0815 -0.3334,0.11358 v 4.1398 h 14.87268 v -10.73767 h -14.87268 v 5.24792 c 0.11145,-0.048 0.22256,-0.10277 0.3334,-0.16446 z"
         id="path2723" />
      <rect
         style="fill:#004a29;fill-opacity:1;stroke-width:0.06669363"
         x="-573.6936"
         y="-231.57333"
         width="1.1115161"
         height="0.26677451"
         id="rect2725" />
      <rect
         style="fill:#004a29;fill-opacity:1;stroke-width:0.06669363"
         x="-572.20416"
         y="-231.57333"
         width="1.1115161"
         height="0.26677451"
         id="rect2727" />
      <g
         style="fill:#004a29;fill-opacity:1"
         transform="translate(-26.472702,1.4934)"
         id="g2840">
        <path
           id="path2729"
           d="m -555.03531,-229.48561 -1.24057,-6.38498 c 0.0264,0.004 0.0538,0.007 0.0813,0.0101 0.12338,0.014 0.25664,0.0229 0.4003,0.0231 0.0305,0 0.0598,-4e-4 0.0879,-0.001 2e-4,0 4e-4,-7e-5 6e-4,-7e-5 6e-4,0 10e-4,0 0.002,0 0.90763,-0.0183 2.15594,-0.40803 3.41698,-1.74824 0.13339,-0.14099 0.15346,-0.34807 0.0635,-0.50907 l 0.54049,-0.55329 -0.19081,-0.18641 -0.54529,0.55829 c -0.16453,-0.0766 -0.36628,-0.0442 -0.49787,0.0949 -1.13312,1.19201 -2.11712,1.45492 -2.80567,1.47699 -1.3e-4,0 -2.6e-4,0 -4e-4,0 -0.0257,4.7e-4 -0.0494,9.4e-4 -0.0712,9.4e-4 -0.13159,0 -0.25097,-0.01 -0.35815,-0.0244 -0.13772,-0.0188 -0.25484,-0.0459 -0.34601,-0.0726 -0.0812,-0.0237 -0.14225,-0.0469 -0.1804,-0.0628 -0.0192,-0.008 -0.0326,-0.0141 -0.0399,-0.0175 -0.003,-0.001 -0.005,-0.002 -0.006,-0.003 -6e-4,-2.6e-4 -7.3e-4,-4e-4 -7.3e-4,-4e-4 v 7e-5 l -0.0401,-0.0211 -0.0477,-0.0127 c -0.007,-0.001 -0.0868,-0.0228 -0.21349,-0.0489 -0.0133,0.63846 -0.41029,1.151 -0.89903,1.151 -0.48886,0 -0.88575,-0.51254 -0.89903,-1.15093 -0.0827,0.017 -0.14592,0.0321 -0.1812,0.0408 -0.14473,0.0233 -0.68581,0.166 -1.24844,0.8246 -0.328,0.38215 -0.66253,0.92944 -0.94958,1.71589 l -0.27125,-0.1638 -1.14446,1.89437 0.86562,0.52294 c -0.0175,0.11425 -0.0344,0.23056 -0.0502,0.35034 -0.0314,0.23737 0.13572,0.45512 0.37309,0.48653 0.0193,0.003 0.0384,0.004 0.0573,0.004 0.20669,6e-5 0.38583,-0.14846 0.42418,-0.35468 l 0.49553,0.29932 -0.36175,1.86182 c 0,0 0.52755,0.27351 1.44499,0.44204 v 3.32808 c 0,0.36835 0.29858,0.66694 0.66693,0.66694 0.36822,0 0.66694,-0.29852 0.66694,-0.66694 v -3.19976 c 0.037,5.4e-4 0.0737,0.001 0.11124,0.001 0.0376,0 0.0742,-6e-4 0.11112,-0.001 v 3.19976 c 0,0.36835 0.29852,0.66694 0.66693,0.66694 0.36815,0 0.66694,-0.29852 0.66694,-0.66694 v -3.32801 c 0.91744,-0.1686 1.44505,-0.44218 1.44505,-0.44218 z m -5.47421,-4.24751 1.55142,0.93704 -0.93744,1.5521 -1.02208,-0.61745 c 0.10751,-0.74851 0.2495,-1.36496 0.4081,-1.87169 z m -1.21016,1.38722 -0.62492,-0.37748 0.93751,-1.5519 0.13572,0.082 c -0.174,0.51427 -0.32773,1.12412 -0.44831,1.84741 z m 2.06677,-3.12319 -0.35121,1.80753 -0.44144,-0.26664 c 0.25196,-0.74077 0.53815,-1.22643 0.79265,-1.54089 z m 2.03729,0.3358 h 0.96706 v 0.33347 h -0.96706 z"
           inkscape:connector-curvature="0"
           style="fill:#004a29;fill-opacity:1;stroke-width:0.06669363" />
        <rect
           id="rect2731"
           height="0.15506464"
           width="1.2501879"
           transform="rotate(-58.8692)"
           y="-599.42279"
           x="-91.238136"
           style="fill:#004a29;fill-opacity:1;stroke-width:0.06669447" />
        <rect
           id="rect2733"
           height="0.15512857"
           width="1.2502323"
           transform="rotate(-58.881972)"
           y="-599.75336"
           x="-91.104645"
           style="fill:#004a29;fill-opacity:1;stroke-width:0.06669328" />
        <path
           id="path2735"
           d="m -557.14816,-237.59595 c 0.30158,-0.19468 0.53114,-0.50181 0.61891,-0.87909 0.17954,-0.77118 -0.29999,-1.54176 -1.07103,-1.72143 -0.77111,-0.17947 -1.54176,0.30012 -1.72143,1.07117 -0.14106,0.60571 0.12465,1.21095 0.61878,1.52981 0.13499,0.0872 0.28692,0.15307 0.45232,0.19155 0.39403,0.0918 0.78758,0.0112 1.10245,-0.19201 z"
           inkscape:connector-curvature="0"
           style="fill:#004a29;fill-opacity:1;stroke-width:0.06669363" />
      </g>
      <g
         style="fill:#004a29;fill-opacity:1"
         transform="translate(-26.472702,4.5817584)"
         id="g2834">
        <path
           id="path2737"
           d="m -550.94999,-226.06923 c -0.11738,-0.0994 -0.23937,-0.1848 -0.36982,-0.25143 -0.13118,-0.065 -0.26991,-0.11792 -0.44725,-0.12012 -0.0176,0 -0.0348,10e-4 -0.0519,0.003 h -2.15361 v 0 c -0.0169,-0.002 -0.034,-0.003 -0.0514,-0.003 v -1.3e-4 c -0.23563,0.005 -0.40656,0.091 -0.57516,0.19281 -0.24844,0.15766 -0.48053,0.38122 -0.67054,0.64606 -0.18561,0.26591 -0.33881,0.57163 -0.34334,0.93498 -4.7e-4,0.14972 0.0314,0.31026 0.10771,0.45858 0.11385,0.22483 0.32206,0.39903 0.57036,0.50347 0.0342,0.0145 0.0694,0.0278 0.10531,0.0403 v -1.61478 c 0,-0.44132 0.35901,-0.80033 0.80033,-0.80033 h 2.26745 c 0.44131,0 0.80045,0.35901 0.80045,0.80033 v 1.61438 c 0.12332,-0.0434 0.2359,-0.098 0.33801,-0.16693 0.14339,-0.0978 0.26197,-0.22809 0.33753,-0.37662 0.0764,-0.14819 0.10818,-0.30873 0.10785,-0.45845 -10e-4,-0.24223 -0.0741,-0.45912 -0.17307,-0.6552 -0.15073,-0.29352 -0.36562,-0.54756 -0.59891,-0.74704 z"
           inkscape:connector-curvature="0"
           style="fill:#004a29;fill-opacity:1;stroke-width:0.06669363" />
        <circle
           id="circle2739"
           r="1.3945638"
           cy="-228.07957"
           cx="-552.89551"
           style="fill:#004a29;fill-opacity:1;stroke-width:0.06669363" />
        <path
           id="path2741"
           d="m -551.09485,-225.27931 c 0,-0.36828 -0.29865,-0.66693 -0.66694,-0.66693 h -2.26758 c -0.36835,0 -0.66694,0.29872 -0.66694,0.66693 v 2.1342 c 0,0.36835 3.60146,0.36835 3.60146,0 z"
           inkscape:connector-curvature="0"
           style="fill:#004a29;fill-opacity:1;stroke-width:0.06669363" />
        <path
           id="path2743"
           d="m -539.57873,-226.06923 c -0.11738,-0.0994 -0.2393,-0.1848 -0.36981,-0.25143 -0.13132,-0.065 -0.26998,-0.11792 -0.44739,-0.12012 -0.0176,0 -0.0348,10e-4 -0.0518,0.003 h -2.15353 c -0.0169,-0.002 -0.034,-0.003 -0.0514,-0.003 v -1.3e-4 c -0.23557,0.005 -0.40657,0.091 -0.5751,0.19281 -0.24844,0.15766 -0.48053,0.38122 -0.67054,0.64606 -0.18554,0.26591 -0.33881,0.57163 -0.34354,0.93498 -2.7e-4,0.14972 0.0316,0.31026 0.10784,0.45858 0.11385,0.22483 0.322,0.39903 0.57043,0.50347 0.0342,0.0145 0.0693,0.0279 0.10525,0.0403 v -1.61478 c 0,-0.44132 0.35901,-0.80033 0.80032,-0.80033 h 2.26745 c 0.44131,0 0.80046,0.35901 0.80046,0.80033 v 1.61438 c 0.12331,-0.0434 0.23589,-0.098 0.33807,-0.16693 0.14339,-0.0978 0.2619,-0.22809 0.3376,-0.37662 0.0763,-0.14819 0.10811,-0.30873 0.10764,-0.45845 -10e-4,-0.24223 -0.0742,-0.45912 -0.17293,-0.6552 -0.15073,-0.29352 -0.36582,-0.54756 -0.59898,-0.74704 z"
           inkscape:connector-curvature="0"
           style="fill:#004a29;fill-opacity:1;stroke-width:0.06669363" />
        <circle
           id="circle2745"
           r="1.3945638"
           cy="-228.07957"
           cx="-541.52423"
           style="fill:#004a29;fill-opacity:1;stroke-width:0.06669363" />
        <path
           id="path2747"
           d="m -539.72359,-225.27931 c 0,-0.36828 -0.29865,-0.66693 -0.66693,-0.66693 h -2.26759 c -0.36835,0 -0.66693,0.29872 -0.66693,0.66693 v 2.1342 c 0,0.36835 3.60145,0.36835 3.60145,0 z"
           inkscape:connector-curvature="0"
           style="fill:#004a29;fill-opacity:1;stroke-width:0.06669363" />
        <path
           id="path2749"
           d="m -545.26443,-226.06923 c -0.11738,-0.0994 -0.23936,-0.1848 -0.36981,-0.25143 -0.13119,-0.065 -0.26985,-0.11792 -0.44725,-0.12012 -0.0176,0 -0.0347,10e-4 -0.0518,0.003 h -2.15361 c -0.0169,-0.002 -0.034,-0.003 -0.0514,-0.003 v -1.3e-4 c -0.23569,0.005 -0.40649,0.091 -0.57516,0.19281 -0.24844,0.15766 -0.48053,0.38122 -0.67061,0.64606 -0.18547,0.26591 -0.3388,0.57163 -0.34347,0.93498 -2.7e-4,0.14972 0.0314,0.31026 0.10771,0.45858 0.11411,0.22483 0.32213,0.39903 0.57057,0.50347 0.0341,0.0145 0.0694,0.0278 0.10524,0.0403 v -1.61478 c 0,-0.44132 0.35901,-0.80033 0.80032,-0.80033 h 2.26745 c 0.44131,0 0.80046,0.35901 0.80046,0.80033 v 1.61438 c 0.12338,-0.0434 0.23596,-0.098 0.33814,-0.16693 0.14339,-0.0978 0.26197,-0.22809 0.3374,-0.37662 0.0765,-0.14819 0.10811,-0.30873 0.10784,-0.45845 -0.001,-0.24223 -0.0742,-0.45912 -0.17313,-0.6552 -0.1506,-0.29352 -0.36562,-0.54756 -0.59885,-0.74704 z"
           inkscape:connector-curvature="0"
           style="fill:#004a29;fill-opacity:1;stroke-width:0.06669363" />
        <circle
           id="circle2751"
           r="1.3945638"
           cy="-228.07957"
           cx="-547.2099"
           style="fill:#004a29;fill-opacity:1;stroke-width:0.06669363" />
        <path
           id="path2753"
           d="m -545.40922,-225.27931 c 0,-0.36828 -0.29865,-0.66693 -0.66694,-0.66693 h -2.26758 c -0.36835,0 -0.66693,0.29872 -0.66693,0.66693 v 2.1342 c 0,0.36835 3.60145,0.36835 3.60145,0 z"
           inkscape:connector-curvature="0"
           style="fill:#004a29;fill-opacity:1;stroke-width:0.06669363" />
      </g>
      <rect
         y="-216.802"
         x="-589.0921"
         height="1.027"
         width="23.8125"
         id="rect3861"
         style="opacity:1;fill:#004a29;fill-opacity:1;fill-rule:nonzero;stroke:none;stroke-width:1.59577751;stroke-linecap:round;stroke-linejoin:miter;stroke-miterlimit:4;stroke-dasharray:none;stroke-opacity:1;paint-order:markers fill stroke" />
    </g>
  </g>
</svg>
