<?xml version="1.0" encoding="UTF-8" standalone="no"?>
<!-- Created with Inkscape (http://www.inkscape.org/) -->

<svg
   xmlns:dc="http://purl.org/dc/elements/1.1/"
   xmlns:cc="http://creativecommons.org/ns#"
   xmlns:rdf="http://www.w3.org/1999/02/22-rdf-syntax-ns#"
   xmlns:svg="http://www.w3.org/2000/svg"
   xmlns="http://www.w3.org/2000/svg"
   xmlns:sodipodi="http://sodipodi.sourceforge.net/DTD/sodipodi-0.dtd"
   xmlns:inkscape="http://www.inkscape.org/namespaces/inkscape"
   width="25.664583mm"
   height="15.875mm"
   viewBox="0 0 25.664582 15.875001"
   version="1.1"
   id="svg8"
   inkscape:version="0.92.4 (5da689c313, 2019-01-14)"
   sodipodi:docname="commission.svg">
  <defs
     id="defs2" />
  <sodipodi:namedview
     id="base"
     pagecolor="#ffffff"
     bordercolor="#666666"
     borderopacity="1.0"
     inkscape:pageopacity="0.0"
     inkscape:pageshadow="2"
     inkscape:zoom="5.4375811"
     inkscape:cx="31.819761"
     inkscape:cy="29.387677"
     inkscape:document-units="mm"
     inkscape:current-layer="g850"
     showgrid="false"
     inkscape:window-width="1600"
     inkscape:window-height="838"
     inkscape:window-x="-8"
     inkscape:window-y="-8"
     inkscape:window-maximized="1" />
  <metadata
     id="metadata5">
    <rdf:RDF>
      <cc:Work
         rdf:about="">
        <dc:format>image/svg+xml</dc:format>
        <dc:type
           rdf:resource="http://purl.org/dc/dcmitype/StillImage" />
        <dc:title />
      </cc:Work>
    </rdf:RDF>
  </metadata>
  <g
     inkscape:label="Layer 1"
     inkscape:groupmode="layer"
     id="layer1"
     transform="translate(-155.59006,-132.39378)">
    <g
       id="g850"
       transform="matrix(0.26458333,0,0,0.26458333,158.30045,133.98941)">
      <g
         id="g835">
        <g
           transform="matrix(1.275633,0,0,1.275633,7.6403093,-10.145917)"
           style="fill:#b2d854;fill-opacity:1"
           id="g859">
          <path
             style="fill:#b2d854;fill-opacity:1"
             id="path815"
             d="m 31.07,4.029 c 0.057,0.008 0.111,0.008 0.168,0 l 4.732,-0.803 -2.398,5.77 h -4.838 l -2.396,-5.77 z"
             inkscape:connector-curvature="0" />
          <path
             style="fill:#b2d854;fill-opacity:1"
             id="path817"
             d="m 45.057,36.313 -16.361,7.844 c -0.84,0.404 -1.777,0.617 -2.709,0.617 h -15.27 v -6.42 h 3.2 c 0.093,0 0.184,-0.025 0.262,-0.074 l 4.63,-2.852 c 0.494,-0.305 1.061,-0.465 1.64,-0.465 h 9.965 c 0.66,0 1.195,0.537 1.195,1.195 0,0.657 -0.535,1.194 -1.195,1.194 h -4.982 c -0.275,0 -0.5,0.224 -0.5,0.5 0,0.274 0.225,0.5 0.5,0.5 h 4.982 c 0.35,0 0.68,-0.082 0.971,-0.228 L 44.53,34.848 c 0.359,-0.09 0.734,0.088 0.896,0.42 0.183,0.391 0.019,0.86 -0.369,1.045 z"
             inkscape:connector-curvature="0" />
          <path
             style="fill:#b2d854;fill-opacity:1"
             id="path819"
             d="M 43.504,17.57 C 41.676,13.677 38.072,10.849 33.858,9.996 h -5.396 c -7.355,1.482 -12.149,8.663 -10.688,16.029 0.621,3.125 2.325,5.936 4.799,7.939 h 7.844 c 1.209,0 2.195,0.984 2.195,2.195 0,0.229 -0.035,0.448 -0.102,0.657 L 36.989,35.7 c 6.782,-3.211 9.706,-11.334 6.515,-18.13 z m -9.436,8.388 c -0.045,0.779 -0.391,1.492 -0.973,2.012 -0.414,0.365 -0.91,0.602 -1.441,0.691 v 0.109 c 0,0.275 -0.223,0.499 -0.5,0.499 -0.275,0 -0.5,-0.224 -0.5,-0.499 v -0.122 c -0.646,-0.11 -1.238,-0.424 -1.682,-0.922 -0.518,-0.582 -0.777,-1.332 -0.732,-2.11 0.018,-0.275 0.254,-0.488 0.529,-0.47 0.275,0.017 0.486,0.252 0.469,0.527 -0.029,0.512 0.143,1.006 0.482,1.389 0.252,0.283 0.576,0.479 0.934,0.576 V 23.811 C 30.008,23.7 29.416,23.387 28.972,22.889 28.454,22.306 28.195,21.556 28.24,20.778 28.285,20 28.633,19.286 29.215,18.767 c 0.412,-0.366 0.91,-0.595 1.439,-0.687 v -0.115 c 0,-0.277 0.225,-0.5 0.5,-0.5 0.277,0 0.5,0.223 0.5,0.5 v 0.122 c 1.441,0.252 2.502,1.538 2.414,3.032 -0.016,0.275 -0.248,0.48 -0.527,0.47 -0.275,-0.017 -0.486,-0.253 -0.471,-0.528 0.055,-0.923 -0.557,-1.733 -1.416,-1.965 v 3.83 c 1.44,0.251 2.502,1.538 2.414,3.032 z"
             inkscape:connector-curvature="0" />
          <path
             style="fill:#b2d854;fill-opacity:1"
             id="path821"
             d="m 33.07,25.899 c -0.029,0.512 -0.258,0.982 -0.641,1.322 -0.225,0.199 -0.492,0.33 -0.775,0.406 v -3.693 c 0.86,0.233 1.469,1.044 1.416,1.965 z"
             inkscape:connector-curvature="0" />
          <path
             style="fill:#b2d854;fill-opacity:1"
             id="path823"
             d="m 29.721,22.225 c -0.34,-0.383 -0.514,-0.876 -0.482,-1.388 0.049,-0.844 0.643,-1.52 1.416,-1.73 v 3.695 c -0.358,-0.096 -0.682,-0.293 -0.934,-0.577 z"
             inkscape:connector-curvature="0" />
          <path
             style="fill:#b2d854;fill-opacity:1"
             id="path825"
             d="m 6.972,19.753 h 5.014 c 0.276,0 0.5,-0.224 0.5,-0.5 0,-0.276 -0.224,-0.5 -0.5,-0.5 H 6.972 c -0.276,0 -0.5,0.224 -0.5,0.5 0,0.277 0.224,0.5 0.5,0.5 z"
             inkscape:connector-curvature="0" />
          <path
             style="fill:#b2d854;fill-opacity:1"
             id="path827"
             d="m 12.393,23.591 c 0,-0.277 -0.224,-0.5 -0.5,-0.5 H 3 c -0.276,0 -0.5,0.223 -0.5,0.5 0,0.275 0.224,0.5 0.5,0.5 h 8.893 c 0.276,0 0.5,-0.225 0.5,-0.5 z"
             inkscape:connector-curvature="0" />
        </g>
        <path
           inkscape:connector-curvature="0"
           id="path822"
           d="M -10.243981,53.362661 H 86.75602"
           style="fill:none;stroke:#b2d854;stroke-width:1.21322834;stroke-linecap:butt;stroke-linejoin:miter;stroke-miterlimit:4;stroke-dasharray:none;stroke-opacity:1" />
      </g>
    </g>
  </g>
</svg>
