<?xml version="1.0" encoding="UTF-8" standalone="no"?>
<!-- Created with Inkscape (http://www.inkscape.org/) -->

<svg
   xmlns:dc="http://purl.org/dc/elements/1.1/"
   xmlns:cc="http://creativecommons.org/ns#"
   xmlns:rdf="http://www.w3.org/1999/02/22-rdf-syntax-ns#"
   xmlns:svg="http://www.w3.org/2000/svg"
   xmlns="http://www.w3.org/2000/svg"
   xmlns:sodipodi="http://sodipodi.sourceforge.net/DTD/sodipodi-0.dtd"
   xmlns:inkscape="http://www.inkscape.org/namespaces/inkscape"
   width="23.8125mm"
   height="25.135418mm"
   viewBox="0 0 23.8125 25.135419"
   version="1.1"
   id="svg8"
   inkscape:version="0.92.4 (5da689c313, 2019-01-14)"
   sodipodi:docname="confidence.svg">
  <defs
     id="defs2" />
  <sodipodi:namedview
     id="base"
     pagecolor="#ffffff"
     bordercolor="#666666"
     borderopacity="1.0"
     inkscape:pageopacity="0.0"
     inkscape:pageshadow="2"
     inkscape:zoom="4.26"
     inkscape:cx="1.6657645"
     inkscape:cy="38.315493"
     inkscape:document-units="mm"
     inkscape:current-layer="layer1"
     showgrid="false"
     inkscape:window-width="1600"
     inkscape:window-height="838"
     inkscape:window-x="-8"
     inkscape:window-y="-8"
     inkscape:window-maximized="1"
     showguides="true"
     inkscape:guide-bbox="true" />
  <metadata
     id="metadata5">
    <rdf:RDF>
      <cc:Work
         rdf:about="">
        <dc:format>image/svg+xml</dc:format>
        <dc:type
           rdf:resource="http://purl.org/dc/dcmitype/StillImage" />
        <dc:title />
      </cc:Work>
    </rdf:RDF>
  </metadata>
  <g
     inkscape:label="Layer 1"
     inkscape:groupmode="layer"
     id="layer1"
     transform="translate(589.0921,240.91043)">
    <g
       id="g1642">
      <g
         style="fill:#004a29;fill-opacity:1"
         transform="matrix(0.0881706,0,0,0.0881706,-580.96132,-240.91043)"
         id="g1892">
        <path
           style="fill:#004a29;fill-opacity:1"
           id="path1878"
           d="m 69.811,98.303 h -0.076 c -2.975,-0.036 -5.107,-0.834 -6.877,-1.582 -1.744,-0.77 -3.211,-1.602 -4.504,-2.336 l -0.523,-0.299 c -2.435,-1.389 -4.95,-2.828 -7.707,-3.91 -1.179,-0.465 -2.214,-1.134 -3.101,-1.94 -0.443,-0.021 -0.888,-0.052 -1.329,-0.052 -7.561,0.036 -12.541,2.862 -17.813,5.854 -0.878,0.498 -1.754,0.993 -2.635,1.475 l -0.76,0.381 c -2.016,1.019 -4.529,2.284 -8.543,2.403 H 15.91 15.797 c -0.008,0 -0.016,-10e-4 -0.024,-10e-4 v 24.008 L 12.56,160.48 c 4.248,0.006 15.22,0.337 24.536,3.326 l 2.463,-29.259 h 6.521 l 2.463,29.259 c 9.316,-2.988 20.289,-3.319 24.536,-3.325 L 69.865,122.298 V 98.301 c -0.013,0 -0.027,0.002 -0.041,0.002 z"
           inkscape:connector-curvature="0" />
        <path
           style="fill:#004a29;fill-opacity:1"
           id="path1880"
           d="m 7.25,223.576 c -0.573,6.806 4.481,12.784 11.283,13.357 6.804,0.573 12.786,-4.477 13.359,-11.283 l 4.946,-58.765 c -9.135,-3.089 -20.56,-3.394 -24.53,-3.398 z"
           inkscape:connector-curvature="0" />
        <path
           style="fill:#004a29;fill-opacity:1"
           id="path1882"
           d="m 53.749,225.65 c 0.573,6.806 6.555,11.855 13.359,11.283 6.802,-0.573 11.856,-6.551 11.283,-13.357 l -5.057,-60.09 c -3.968,0.005 -15.394,0.31 -24.53,3.398 z"
           inkscape:connector-curvature="0" />
        <path
           style="fill:#004a29;fill-opacity:1"
           id="path1884"
           d="M 54.267,41.87 C 60.882,37.952 65.319,30.747 65.319,22.5 65.319,10.074 55.248,0 42.82,0 30.394,0 20.32,10.074 20.32,22.5 c 0,8.246 4.438,15.452 11.053,19.37 3.354,1.986 7.266,3.13 11.447,3.13 4.181,0 8.093,-1.144 11.447,-3.13 z"
           inkscape:connector-curvature="0" />
        <path
           style="fill:#004a29;fill-opacity:1"
           id="path1886"
           d="m 66.821,75.732 c 0.209,0.12 0.421,0.241 0.621,0.355 l 2.018,1.263 c -0.151,0.688 -0.364,1.301 -0.608,1.783 -0.037,0.072 -0.072,0.142 -0.109,0.208 -0.879,-0.478 -2.027,-1.133 -3.334,-1.881 -1.185,-0.668 -2.528,-1.406 -4.017,-2.151 0.474,1.456 0.637,3.036 0.394,4.65 -0.727,4.826 -4.862,8.486 -9.702,8.669 2.623,1.14 5.007,2.504 7.354,3.845 1.355,0.767 2.703,1.529 4.277,2.223 1.574,0.666 3.434,1.377 6.044,1.408 0.022,0 0.044,0 0.065,0 1.547,0 3.351,-0.358 4.963,-1.177 3.945,-1.993 6.711,-5.251 8.412,-8.71 0.034,-0.069 0.062,-0.141 0.095,-0.21 1.401,-2.93 2.15,-6.056 2.343,-9.238 C 76.741,72.191 69.711,74.39 66.821,75.732 Z"
           inkscape:connector-curvature="0" />
        <path
           style="fill:#004a29;fill-opacity:1"
           id="path1888"
           d="m 21.909,74.007 -0.024,0.036 c 0.017,-0.009 0.033,-0.018 0.05,-0.027 7.924,-4.193 15.672,-6.231 23.68,-6.231 2.547,0 5.078,0.192 7.601,0.571 2.626,0.395 4.86,1.772 6.409,3.693 1.482,0.654 2.851,1.33 4.142,2.01 L 63.731,74.006 C 64.14,73.73 73.212,67.789 85.627,73.429 85.304,68.336 83.584,63.131 79.926,58.765 76.036,54.043 69.637,50.834 62.355,50.708 62.282,50.706 62.212,50.697 62.139,50.697 h -0.448 c -0.021,0 -0.042,-0.001 -0.063,-0.001 -0.007,0 -0.014,0.001 -0.021,0.001 h -5.89 c -2,3.587 -7.012,6.135 -12.895,6.135 -5.883,0 -10.895,-2.548 -12.895,-6.135 h -5.908 v -0.002 c -0.04,0 -0.08,0.002 -0.12,0.002 h -0.394 c -0.066,0 -0.13,0.008 -0.196,0.01 -7.29,0.124 -13.698,3.334 -17.589,8.057 -3.659,4.366 -5.382,9.573 -5.705,14.664 12.413,-5.638 21.484,0.303 21.894,0.579 z"
           inkscape:connector-curvature="0" />
        <path
           style="fill:#004a29;fill-opacity:1"
           id="path1890"
           d="m 10.849,94.923 c 1.611,0.821 3.412,1.178 4.949,1.178 0.027,0 0.055,0 0.083,-0.001 3.948,-0.116 6.171,-1.465 8.314,-2.518 6.193,-3.372 12.021,-7.554 21.502,-7.597 1.5,0 3.094,0.111 4.813,0.368 4.369,0.657 8.443,-2.353 9.1,-6.722 0.656,-4.372 -2.353,-8.442 -6.723,-9.099 -2.498,-0.376 -4.896,-0.548 -7.189,-0.548 -9.736,-0.018 -17.395,3.151 -22.736,5.977 -2.541,1.339 -4.619,2.6 -6.066,3.379 -0.037,-0.066 -0.074,-0.137 -0.111,-0.21 -0.219,-0.434 -0.407,-0.986 -0.553,-1.594 l 1.967,-1.456 c 0.197,-0.113 0.409,-0.233 0.619,-0.352 -2.891,-1.342 -9.92,-3.54 -18.815,1.037 0.198,3.256 0.973,6.46 2.438,9.448 0.181,0.368 0.38,0.732 0.585,1.095 1.72,3.047 4.302,5.841 7.823,7.615 z"
           inkscape:connector-curvature="0" />
      </g>
      <path
         inkscape:connector-curvature="0"
         id="path1567"
         d="m -589.0921,-218.75997 a 15.016295,7.6083117 0 0 0 11.94712,2.98495 15.016295,7.6083117 0 0 0 11.86538,-2.98495 z"
         style="opacity:1;fill:#004a29;fill-opacity:1;fill-rule:nonzero;stroke:none;stroke-width:1.56451547;stroke-linecap:round;stroke-linejoin:miter;stroke-miterlimit:4;stroke-dasharray:none;stroke-opacity:1;paint-order:markers fill stroke" />
    </g>
  </g>
</svg>
