<?xml version="1.0" encoding="UTF-8" standalone="no"?>
<!-- Created with Inkscape (http://www.inkscape.org/) -->

<svg
   xmlns:dc="http://purl.org/dc/elements/1.1/"
   xmlns:cc="http://creativecommons.org/ns#"
   xmlns:rdf="http://www.w3.org/1999/02/22-rdf-syntax-ns#"
   xmlns:svg="http://www.w3.org/2000/svg"
   xmlns="http://www.w3.org/2000/svg"
   xmlns:sodipodi="http://sodipodi.sourceforge.net/DTD/sodipodi-0.dtd"
   xmlns:inkscape="http://www.inkscape.org/namespaces/inkscape"
   width="25.664583mm"
   height="15.875mm"
   viewBox="0 0 25.664583 15.875"
   version="1.1"
   id="svg8"
   inkscape:version="0.92.4 (5da689c313, 2019-01-14)"
   sodipodi:docname="consultancy.svg">
  <defs
     id="defs2" />
  <sodipodi:namedview
     id="base"
     pagecolor="#ffffff"
     bordercolor="#666666"
     borderopacity="1.0"
     inkscape:pageopacity="0.0"
     inkscape:pageshadow="2"
     inkscape:zoom="4.9153843"
     inkscape:cx="41.050432"
     inkscape:cy="42.416512"
     inkscape:document-units="mm"
     inkscape:current-layer="g838"
     showgrid="false"
     inkscape:window-width="1600"
     inkscape:window-height="838"
     inkscape:window-x="-8"
     inkscape:window-y="-8"
     inkscape:window-maximized="1" />
  <metadata
     id="metadata5">
    <rdf:RDF>
      <cc:Work
         rdf:about="">
        <dc:format>image/svg+xml</dc:format>
        <dc:type
           rdf:resource="http://purl.org/dc/dcmitype/StillImage" />
        <dc:title />
      </cc:Work>
    </rdf:RDF>
  </metadata>
  <g
     inkscape:label="Layer 1"
     inkscape:groupmode="layer"
     id="layer1"
     transform="translate(-121.40081,-74.88481)">
    <g
       id="g838"
       transform="matrix(0.26458333,0,0,0.26458333,97.795384,65.290012)">
      <g
         id="g898"
         transform="matrix(0.9470337,0,0,0.92307689,101.05197,20.914726)"
         style="fill:#b2d854;fill-opacity:1">
        <g
           id="g970"
           transform="matrix(1.0779437,0,0,1.0779437,-15.181163,-14.955583)"
           style="fill:#b2d854;fill-opacity:1">
          <path
             id="path882"
             d="m 33.8,66.6 c -0.2,-1.5 -1.5,-2.7 -3,-2.7 0,0 0,0 0,0 H 23 L 22.2,53.2 c 2.2,1.3 4.6,2 7.2,2 h 5.3 c 1.4,0 2.5,-1.1 2.5,-2.5 0,-1.4 -1.1,-2.5 -2.5,-2.5 h -5.3 c -1.8,0 -3.5,-0.5 -4.9,-1.5 l -5,-3.3 c -0.9,-0.7 -2.1,-1.1 -3.3,-1.1 0,0 0,0 0,0 h -0.9 c -1.8,0 -3.4,0.8 -4.6,2.1 -1.2,1.3 -1.7,3.1 -1.4,4.9 l 2.5,16.1 c 0.2,1.5 1.5,2.6 3,2.6 0,0 0,0 0,0 H 28.2 L 30,86.6 c 0.2,1.6 1.5,2.7 3,2.7 0.1,0 0.2,0 0.3,0 C 35,89.1 36.2,87.6 36,86 Z"
             inkscape:connector-curvature="0"
             style="fill:#b2d854;fill-opacity:1" />
          <path
             id="path884"
             d="M 24,72.4 H 13.8 c -2.3,0 -4.2,-1.6 -4.6,-3.9 L 6.5,51.5 C 6.3,50.4 5.3,49.7 4.2,49.8 3.1,50 2.4,51 2.5,52.1 l 2.7,17 c 0.7,4.3 4.3,7.3 8.6,7.3 H 24 c 1.1,0 2,-0.9 2,-2 0,-1.1 -0.9,-2 -2,-2 z"
             inkscape:connector-curvature="0"
             style="fill:#b2d854;fill-opacity:1" />
          <path
             id="path886"
             d="m 57.1,57.6 h -28 c -1.1,0 -2,0.9 -2,2 0,1.1 0.9,2 2,2 h 15.5 v 24 h -3.2 c -1.1,0 -2,0.9 -2,2 0,1.1 0.9,2 2,2 H 57 c 1.1,0 2,-0.9 2,-2 v -28 c 0.2,-1.1 -0.7,-2 -1.9,-2 z"
             inkscape:connector-curvature="0"
             style="fill:#b2d854;fill-opacity:1" />
          <circle
             id="circle888"
             r="6.5999999"
             cy="35.900002"
             cx="15.6"
             style="fill:#b2d854;fill-opacity:1" />
          <path
             id="path890"
             d="m 85.4,70 c 1.5,0 2.8,-1.1 3,-2.6 l 2.5,-16.1 c 0.3,-1.8 -0.3,-3.6 -1.4,-4.9 -1.2,-1.3 -2.8,-2.1 -4.6,-2.1 H 84 c 0,0 0,0 0,0 -1.2,0 -2.3,0.5 -3.3,1.1 -2.3,1.4 -2.6,5.6 -2.8,7.8 C 77.6,55.4 77,63.9 77,63.9 h -7.8 v 0 c -1.5,0 -2.8,1.2 -3,2.7 l -2.1,19.3 c -0.2,1.7 1,3.2 2.7,3.3 0.1,0 0.2,0 0.3,0 1.5,0 2.8,-1.2 3,-2.7 L 72,69.9 85.4,70 c 0,0 0,0 0,0 z"
             inkscape:connector-curvature="0"
             style="fill:#b2d854;fill-opacity:1" />
          <path
             id="path892"
             d="m 95.8,49.8 c -1.1,-0.2 -2.1,0.6 -2.3,1.7 l -2.7,17 c -0.4,2.3 -2.3,3.9 -4.6,3.9 H 76 c -1.1,0 -2,0.9 -2,2 0,1.1 0.9,2 2,2 h 10.2 c 4.3,0 7.9,-3.1 8.6,-7.3 l 2.7,-17 C 97.6,51 96.9,50 95.8,49.8 Z"
             inkscape:connector-curvature="0"
             style="fill:#b2d854;fill-opacity:1" />
          <circle
             id="circle894"
             r="6.5999999"
             cy="35.900002"
             cx="84.400002"
             style="fill:#b2d854;fill-opacity:1" />
        </g>
      </g>
    </g>
  </g>
</svg>
