<?xml version="1.0" encoding="UTF-8" standalone="no"?>
<!-- Created with Inkscape (http://www.inkscape.org/) -->

<svg
   xmlns:dc="http://purl.org/dc/elements/1.1/"
   xmlns:cc="http://creativecommons.org/ns#"
   xmlns:rdf="http://www.w3.org/1999/02/22-rdf-syntax-ns#"
   xmlns:svg="http://www.w3.org/2000/svg"
   xmlns="http://www.w3.org/2000/svg"
   xmlns:sodipodi="http://sodipodi.sourceforge.net/DTD/sodipodi-0.dtd"
   xmlns:inkscape="http://www.inkscape.org/namespaces/inkscape"
   width="23.8125mm"
   height="25.135412mm"
   viewBox="0 0 23.8125 25.135412"
   version="1.1"
   id="svg8"
   inkscape:version="0.92.4 (5da689c313, 2019-01-14)"
   sodipodi:docname="diversity.svg">
  <defs
     id="defs2" />
  <sodipodi:namedview
     id="base"
     pagecolor="#ffffff"
     bordercolor="#666666"
     borderopacity="1.0"
     inkscape:pageopacity="0.0"
     inkscape:pageshadow="2"
     inkscape:zoom="3.3631585"
     inkscape:cx="-17.293322"
     inkscape:cy="24.371019"
     inkscape:document-units="mm"
     inkscape:current-layer="layer1"
     showgrid="false"
     inkscape:window-width="1600"
     inkscape:window-height="838"
     inkscape:window-x="-8"
     inkscape:window-y="-8"
     inkscape:window-maximized="1" />
  <metadata
     id="metadata5">
    <rdf:RDF>
      <cc:Work
         rdf:about="">
        <dc:format>image/svg+xml</dc:format>
        <dc:type
           rdf:resource="http://purl.org/dc/dcmitype/StillImage" />
        <dc:title />
      </cc:Work>
    </rdf:RDF>
  </metadata>
  <g
     inkscape:label="Layer 1"
     inkscape:groupmode="layer"
     id="layer1"
     transform="translate(614.79543,247.13871)">
    <g
       id="g2363">
      <rect
         y="-223.03072"
         x="-614.79541"
         height="1.02742"
         width="23.8125"
         id="rect849"
         style="opacity:1;fill:#004a29;fill-opacity:1;fill-rule:nonzero;stroke:none;stroke-width:0.01334526;stroke-linecap:round;stroke-linejoin:miter;stroke-miterlimit:4;stroke-dasharray:none;stroke-opacity:1;paint-order:markers fill stroke" />
      <g
         transform="matrix(0.96676793,0,0,0.96676793,-17.711109,-13.017189)"
         style="fill:#004a29;fill-opacity:1"
         id="g1120">
        <g
           style="fill:#004a29;fill-opacity:1"
           id="g893"
           transform="matrix(0.23673246,0,0,0.23673246,-617.12984,-242.76114)">
          <g
             style="fill:#004a29;fill-opacity:1"
             id="g827">
            <path
               style="fill:#004a29;fill-opacity:1"
               inkscape:connector-curvature="0"
               d="M 50.1,28.2 C 38,28.2 28.2,38 28.2,50 28.2,62 38,71.9 50.1,71.9 62.2,71.9 71.9,62.1 71.9,50 71.9,37.9 62.1,28.2 50.1,28.2 Z M 54,39.3 c -1.3,0.2 -2.6,0.3 -3.9,0.3 -1.3,0 -2.6,-0.1 -3.9,-0.3 1.1,-4.7 2.8,-7.4 3.9,-7.4 1.1,0 2.8,2.7 3.9,7.4 z m 1.7,-6.4 c 2.4,0.8 4.6,2.1 6.4,3.7 -1.3,0.8 -2.8,1.4 -4.5,1.9 -0.4,-2.1 -1.1,-4 -1.9,-5.6 z M 45.1,48.1 c 0.1,-1.8 0.2,-3.5 0.4,-5.1 1.5,0.2 3,0.3 4.6,0.3 1.6,0 3.1,-0.1 4.6,-0.3 0.2,1.5 0.4,3.2 0.4,5.1 z m 10,3.8 c -0.1,1.8 -0.2,3.5 -0.4,5 -1.5,-0.2 -3,-0.3 -4.6,-0.3 -1.5,0 -3.1,0.1 -4.6,0.3 -0.2,-1.5 -0.4,-3.2 -0.4,-5 z M 42.5,38.5 C 40.9,38 39.4,37.4 38,36.6 c 1.8,-1.7 4,-2.9 6.4,-3.7 -0.8,1.6 -1.4,3.5 -1.9,5.6 z m -0.7,3.8 c -0.3,1.9 -0.4,3.9 -0.5,5.9 h -9.2 c 0.3,-3.2 1.5,-6.2 3.3,-8.7 1.9,1.2 4.1,2.1 6.4,2.8 z m -0.5,9.6 c 0.1,2 0.2,4 0.5,5.9 -2.3,0.7 -4.5,1.6 -6.4,2.8 -1.8,-2.5 -3,-5.4 -3.3,-8.7 z m 1.2,9.6 c 0.5,2.1 1.1,4.1 1.9,5.7 -2.4,-0.8 -4.6,-2.1 -6.4,-3.7 1.4,-0.9 2.8,-1.5 4.5,-2 z m 3.7,-0.8 c 1.3,-0.2 2.6,-0.3 3.9,-0.3 1.3,0 2.6,0.1 3.9,0.3 -1.1,4.7 -2.8,7.4 -3.9,7.4 -1.1,0 -2.8,-2.7 -3.9,-7.4 z m 11.5,0.8 c 1.6,0.5 3.1,1.1 4.5,1.9 -1.8,1.7 -4,2.9 -6.4,3.7 0.7,-1.5 1.4,-3.5 1.9,-5.6 z m 0.6,-3.7 c 0.3,-1.9 0.4,-3.9 0.5,-5.9 H 68 c -0.3,3.2 -1.5,6.2 -3.3,8.7 -1.9,-1.2 -4,-2.2 -6.4,-2.8 z m 0.5,-9.7 c -0.1,-2 -0.2,-4 -0.5,-5.9 2.3,-0.7 4.5,-1.6 6.4,-2.8 1.8,2.5 3,5.4 3.3,8.7 z"
               id="path825" />
          </g>
          <g
             style="fill:#004a29;fill-opacity:1"
             id="g831">
            <circle
               style="fill:#004a29;fill-opacity:1"
               cx="50.099998"
               cy="7.4000001"
               r="4.9000001"
               id="circle829" />
          </g>
          <g
             style="fill:#004a29;fill-opacity:1"
             id="g835">
            <path
               style="fill:#004a29;fill-opacity:1"
               inkscape:connector-curvature="0"
               d="m 43.8,22.9 c 2,0.4 4.1,0.6 6.3,0.6 2.2,0 4.3,-0.2 6.3,-0.6 0.7,-0.1 1.2,-0.8 1.1,-1.6 L 57,17.4 c -0.2,-1.6 -1.1,-3 -2.4,-3.8 -1.3,0.9 -2.8,1.5 -4.5,1.5 -1.7,0 -3.3,-0.6 -4.5,-1.5 -1.3,0.8 -2.2,2.2 -2.4,3.8 l -0.5,3.9 c -0.2,0.7 0.3,1.4 1.1,1.6 z"
               id="path833" />
          </g>
          <g
             style="fill:#004a29;fill-opacity:1"
             id="g839">
            <circle
               style="fill:#004a29;fill-opacity:1"
               r="4.9000001"
               transform="matrix(0.7071,-0.7071,0.7071,0.7071,-8.182,19.8834)"
               cx="19.9"
               cy="19.799999"
               id="ellipse837" />
          </g>
          <g
             style="fill:#004a29;fill-opacity:1"
             id="g843">
            <path
               style="fill:#004a29;fill-opacity:1"
               inkscape:connector-curvature="0"
               d="m 22.1,31.8 2.4,3.1 c 0.5,0.6 1.3,0.7 1.9,0.3 1.7,-1.1 3.3,-2.5 4.9,-4 1.6,-1.6 2.9,-3.2 4,-4.9 0.4,-0.6 0.3,-1.5 -0.3,-1.9 L 31.9,22 c -1.3,-1 -2.9,-1.3 -4.4,-1 -0.2,1.6 -0.9,3.1 -2.1,4.3 -1.2,1.2 -2.7,1.9 -4.3,2.1 -0.4,1.5 0,3.1 1,4.4 z"
               id="path841" />
          </g>
          <g
             style="fill:#004a29;fill-opacity:1"
             id="g847">
            <circle
               style="fill:#004a29;fill-opacity:1"
               cx="7.4000001"
               cy="49.900002"
               r="4.9000001"
               id="circle845" />
          </g>
          <g
             style="fill:#004a29;fill-opacity:1"
             id="g851">
            <path
               style="fill:#004a29;fill-opacity:1"
               inkscape:connector-curvature="0"
               d="m 21.3,57.4 c 0.7,0.1 1.4,-0.4 1.6,-1.1 0.4,-2 0.6,-4.1 0.6,-6.3 0,-2.2 -0.2,-4.3 -0.6,-6.3 C 22.8,43 22.1,42.5 21.3,42.6 L 17.4,43 c -1.6,0.2 -3,1.1 -3.8,2.4 0.9,1.3 1.5,2.8 1.5,4.5 0,1.7 -0.6,3.3 -1.5,4.5 0.8,1.3 2.2,2.2 3.8,2.4 z"
               id="path849" />
          </g>
          <g
             style="fill:#004a29;fill-opacity:1"
             id="g855">
            <circle
               style="fill:#004a29;fill-opacity:1"
               r="4.9000001"
               transform="matrix(0.7071,-0.7071,0.7071,0.7071,-50.8273,37.4713)"
               cx="19.799999"
               cy="80.099998"
               id="ellipse853" />
          </g>
          <g
             style="fill:#004a29;fill-opacity:1"
             id="g859">
            <path
               style="fill:#004a29;fill-opacity:1"
               inkscape:connector-curvature="0"
               d="M 31.2,68.7 C 29.6,67.1 28,65.8 26.3,64.7 25.7,64.3 24.8,64.4 24.4,65 L 22,68.1 c -1,1.3 -1.3,2.9 -1,4.4 1.6,0.2 3.1,1 4.3,2.1 1.2,1.2 1.9,2.7 2.1,4.3 1.5,0.4 3.1,0 4.4,-1 l 3.1,-2.4 c 0.6,-0.5 0.7,-1.3 0.3,-1.9 -1.1,-1.7 -2.4,-3.3 -4,-4.9 z"
               id="path857" />
          </g>
          <g
             style="fill:#004a29;fill-opacity:1"
             id="g863">
            <circle
               style="fill:#004a29;fill-opacity:1"
               cx="49.900002"
               cy="92.599998"
               r="4.9000001"
               id="circle861" />
          </g>
          <g
             style="fill:#004a29;fill-opacity:1"
             id="g867">
            <path
               style="fill:#004a29;fill-opacity:1"
               inkscape:connector-curvature="0"
               d="m 56.2,77.1 c -2,-0.4 -4.1,-0.6 -6.3,-0.6 -2.2,0 -4.3,0.2 -6.3,0.6 -0.7,0.1 -1.2,0.8 -1.1,1.6 l 0.5,3.9 c 0.2,1.6 1.1,3 2.4,3.8 1.3,-0.9 2.8,-1.5 4.5,-1.5 1.7,0 3.3,0.6 4.5,1.5 1.3,-0.8 2.2,-2.2 2.4,-3.8 l 0.5,-3.9 C 57.5,78 57,77.3 56.2,77.1 Z"
               id="path865" />
          </g>
          <g
             style="fill:#004a29;fill-opacity:1"
             id="g871">
            <circle
               style="fill:#004a29;fill-opacity:1"
               r="4.9000001"
               transform="matrix(0.7071,-0.7071,0.7071,0.7071,-33.2393,80.1166)"
               cx="80.099998"
               cy="80.199997"
               id="ellipse869" />
          </g>
          <g
             style="fill:#004a29;fill-opacity:1"
             id="g875">
            <path
               style="fill:#004a29;fill-opacity:1"
               inkscape:connector-curvature="0"
               d="m 77.9,68.2 -2.4,-3.1 c -0.5,-0.6 -1.3,-0.7 -1.9,-0.3 -1.7,1.1 -3.3,2.5 -4.9,4 -1.6,1.6 -2.9,3.2 -4,4.9 -0.4,0.6 -0.3,1.5 0.3,1.9 l 3.1,2.4 c 1.3,1 2.9,1.3 4.4,1 0.2,-1.6 1,-3.1 2.1,-4.3 1.2,-1.2 2.7,-1.9 4.3,-2.1 0.4,-1.5 0,-3.1 -1,-4.4 z"
               id="path873" />
          </g>
          <g
             style="fill:#004a29;fill-opacity:1"
             id="g879">
            <circle
               style="fill:#004a29;fill-opacity:1"
               cx="92.599998"
               cy="50.099998"
               r="4.9000001"
               id="circle877" />
          </g>
          <g
             style="fill:#004a29;fill-opacity:1"
             id="g883">
            <path
               style="fill:#004a29;fill-opacity:1"
               inkscape:connector-curvature="0"
               d="m 82.6,43.1 -3.9,-0.5 c -0.7,-0.1 -1.4,0.4 -1.6,1.1 -0.4,2 -0.6,4.1 -0.6,6.3 0,2.2 0.2,4.3 0.6,6.3 0.1,0.7 0.8,1.2 1.6,1.1 l 3.9,-0.5 c 1.6,-0.2 3,-1.1 3.8,-2.4 -0.9,-1.3 -1.5,-2.8 -1.5,-4.5 0,-1.7 0.6,-3.3 1.5,-4.5 -0.8,-1.3 -2.2,-2.2 -3.8,-2.4 z"
               id="path881" />
          </g>
          <g
             style="fill:#004a29;fill-opacity:1"
             id="g887">
            <circle
               style="fill:#004a29;fill-opacity:1"
               r="4.9000001"
               transform="matrix(0.7071,-0.7071,0.7071,0.7071,9.4059,62.5286)"
               cx="80.199997"
               cy="19.9"
               id="ellipse885" />
          </g>
          <g
             style="fill:#004a29;fill-opacity:1"
             id="g891">
            <path
               style="fill:#004a29;fill-opacity:1"
               inkscape:connector-curvature="0"
               d="m 68.8,31.3 c 1.6,1.6 3.2,2.9 4.9,4 0.6,0.4 1.5,0.3 1.9,-0.3 L 78,31.9 c 1,-1.3 1.3,-2.9 1,-4.4 -1.6,-0.2 -3.1,-1 -4.3,-2.1 -1.2,-1.2 -1.9,-2.7 -2.1,-4.3 -1.5,-0.4 -3.1,0 -4.4,1 l -3.1,2.4 c -0.6,0.5 -0.7,1.3 -0.3,1.9 1.1,1.7 2.4,3.3 4,4.9 z"
               id="path889" />
          </g>
        </g>
      </g>
    </g>
  </g>
</svg>
