<?xml version="1.0" encoding="UTF-8" standalone="no"?>
<!-- Created with Inkscape (http://www.inkscape.org/) -->

<svg
   xmlns:dc="http://purl.org/dc/elements/1.1/"
   xmlns:cc="http://creativecommons.org/ns#"
   xmlns:rdf="http://www.w3.org/1999/02/22-rdf-syntax-ns#"
   xmlns:svg="http://www.w3.org/2000/svg"
   xmlns="http://www.w3.org/2000/svg"
   xmlns:sodipodi="http://sodipodi.sourceforge.net/DTD/sodipodi-0.dtd"
   xmlns:inkscape="http://www.inkscape.org/namespaces/inkscape"
   width="23.8125mm"
   height="25.135416mm"
   viewBox="0 0 23.8125 25.135416"
   version="1.1"
   id="svg8"
   inkscape:version="0.92.4 (5da689c313, 2019-01-14)"
   sodipodi:docname="extracurricular.svg">
  <defs
     id="defs2" />
  <sodipodi:namedview
     id="base"
     pagecolor="#ffffff"
     bordercolor="#666666"
     borderopacity="1.0"
     inkscape:pageopacity="0.0"
     inkscape:pageshadow="2"
     inkscape:zoom="4.5540404"
     inkscape:cx="38.984147"
     inkscape:cy="50.120057"
     inkscape:document-units="mm"
     inkscape:current-layer="layer1"
     showgrid="false"
     inkscape:window-width="1600"
     inkscape:window-height="838"
     inkscape:window-x="-8"
     inkscape:window-y="-8"
     inkscape:window-maximized="1" />
  <metadata
     id="metadata5">
    <rdf:RDF>
      <cc:Work
         rdf:about="">
        <dc:format>image/svg+xml</dc:format>
        <dc:type
           rdf:resource="http://purl.org/dc/dcmitype/StillImage" />
        <dc:title />
      </cc:Work>
    </rdf:RDF>
  </metadata>
  <g
     inkscape:label="Layer 1"
     inkscape:groupmode="layer"
     id="layer1"
     transform="translate(632.55432,240.34213)">
    <g
       id="g1698">
      <g
         transform="matrix(1.039938,0,0,1.039938,54.264029,7.6428169)"
         id="g1509">
        <path
           inkscape:connector-curvature="0"
           d="m -653.51769,-221.37125 c -0.5017,0.16533 -0.86646,0.63245 -0.86646,1.18956 0,0.55711 0.36453,1.02423 0.86646,1.18978 0.24524,-0.33363 0.39178,-0.74396 0.39178,-1.18978 0,-0.44583 -0.14678,-0.85593 -0.39178,-1.18956 z"
           id="path1122"
           style="fill:#004a29;fill-opacity:1;stroke-width:0.22897999" />
        <g
           style="fill:#004a29;fill-opacity:1"
           id="g1128"
           transform="matrix(0.22898,0,0,0.22898,-662.18459,-236.03398)">
          <path
             style="fill:#004a29;fill-opacity:1"
             inkscape:connector-curvature="0"
             d="m 27.473,69.231 c 0,-2.433 -1.592,-4.473 -3.784,-5.195 -1.071,1.457 -1.711,3.249 -1.711,5.195 0,1.946 0.64,3.739 1.711,5.196 2.191,-0.723 3.784,-2.763 3.784,-5.196 z"
             id="path1124" />
          <path
             style="fill:#004a29;fill-opacity:1"
             inkscape:connector-curvature="0"
             d="m 31.868,69.231 c 0,-3.034 1.77,-5.656 4.328,-6.907 -1.495,-1.177 -3.377,-1.884 -5.427,-1.884 -2.05,0 -3.932,0.708 -5.427,1.884 2.558,1.251 4.328,3.873 4.328,6.907 0,3.034 -1.77,5.656 -4.328,6.907 1.495,1.177 3.377,1.884 5.427,1.884 2.05,0 3.932,-0.708 5.427,-1.884 -2.558,-1.251 -4.328,-3.873 -4.328,-6.907 z"
             id="path1126" />
        </g>
      </g>
      <circle
         style="fill:#004a29;fill-opacity:1;stroke-width:0.238125"
         id="circle1130"
         r="0.9158287"
         cy="-223.19368"
         cx="-617.24622" />
      <g
         transform="matrix(0.238125,0,0,0.238125,-632.55432,-236.66994)"
         id="g1134"
         style="fill:#004a29;fill-opacity:1">
        <path
           id="path1132"
           d="m 82.418,66.484 c 0,0.91 -0.738,1.648 -1.648,1.648 H 52.198 c -0.91,0 -1.648,-0.738 -1.648,-1.648 v 0 c 0,-0.91 0.738,-1.648 1.648,-1.648 h 28.571 c 0.911,-0.001 1.649,0.737 1.649,1.648 z"
           inkscape:connector-curvature="0"
           style="fill:#004a29;fill-opacity:1" />
      </g>
      <g
         transform="matrix(0.238125,0,0,0.238125,-632.55432,-236.66994)"
         id="g1146"
         style="fill:#004a29;fill-opacity:1">
        <path
           id="path1144"
           d="m 91.758,63.736 h -6.593 c -0.507,0 -0.975,0.147 -1.383,0.386 0.514,0.654 0.833,1.467 0.833,2.361 0,0.894 -0.319,1.707 -0.833,2.361 0.407,0.239 0.876,0.386 1.383,0.386 h 6.593 c 1.517,0 2.747,-1.23 2.747,-2.747 0,-1.517 -1.229,-2.747 -2.747,-2.747 z"
           inkscape:connector-curvature="0"
           style="fill:#004a29;fill-opacity:1" />
      </g>
      <g
         transform="matrix(1.039938,0,0,1.039938,56.076597,9.3199434)"
         id="g1517">
        <g
           style="fill:#004a29;fill-opacity:1"
           id="g1138"
           transform="matrix(0.22898,0,0,0.22898,-662.18459,-236.03398)">
          <path
             style="fill:#004a29;fill-opacity:1"
             inkscape:connector-curvature="0"
             d="m 68.132,85.714 c 0,1.214 -0.984,2.198 -2.198,2.198 H 2.198 C 0.984,87.912 0,86.928 0,85.714 v 0 C 0,84.5 0.984,83.516 2.198,83.516 h 63.736 c 1.214,0 2.198,0.984 2.198,2.198 z"
             id="path1136" />
        </g>
        <g
           style="fill:#004a29;fill-opacity:1"
           id="g1142"
           transform="matrix(0.22898,0,0,0.22898,-662.18459,-236.03398)">
          <path
             style="fill:#004a29;fill-opacity:1"
             inkscape:connector-curvature="0"
             d="m 100,85.714 c 0,1.214 -0.984,2.198 -2.198,2.198 h -6.593 c -1.214,0 -2.198,-0.984 -2.198,-2.198 v 0 c 0,-1.214 0.984,-2.198 2.198,-2.198 h 6.593 c 1.214,0 2.198,0.984 2.198,2.198 z"
             id="path1140" />
        </g>
        <g
           style="fill:#004a29;fill-opacity:1"
           id="g1150"
           transform="matrix(0.22898,0,0,0.22898,-662.18459,-236.03398)">
          <path
             style="fill:#004a29;fill-opacity:1"
             inkscape:connector-curvature="0"
             d="M 86.969,84.615 H 70.174 c 0.092,0.353 0.156,0.717 0.156,1.099 0,0.382 -0.064,0.746 -0.156,1.099 H 86.97 c -0.092,-0.353 -0.156,-0.717 -0.156,-1.099 0,-0.382 0.063,-0.745 0.155,-1.099 z"
             id="path1148" />
        </g>
      </g>
      <g
         transform="matrix(1.039938,0,0,1.039938,56.076597,5.1185725)"
         id="g1503">
        <g
           style="fill:#004a29;fill-opacity:1"
           id="g1156"
           transform="matrix(0.22898,0,0,0.22898,-662.18459,-236.03398)">
          <g
             style="fill:#004a29;fill-opacity:1"
             id="g1154">
            <path
               style="fill:#004a29;fill-opacity:1"
               inkscape:connector-curvature="0"
               d="M 5.526,50.439 15.755,30.921 c 0.171,-0.327 3.683,-3.449 3.683,-3.449 0,0 -0.485,4.505 -0.656,4.831 L 8.554,51.822 C 8.383,52.149 7.567,52.104 6.73,51.722 5.893,51.34 5.355,50.766 5.526,50.439 Z"
               id="path1152" />
          </g>
        </g>
        <g
           style="fill:#004a29;fill-opacity:1"
           id="g1160"
           transform="matrix(0.22898,0,0,0.22898,-662.18459,-236.03398)">
          <path
             style="fill:#004a29;fill-opacity:1"
             inkscape:connector-curvature="0"
             d="m 7.877,56.066 19.5,-10.263 c 0.326,-0.172 4.99,-0.749 4.99,-0.749 0,0 -2.956,3.433 -3.283,3.605 L 9.584,58.922 C 9.257,59.094 8.611,58.594 8.139,57.805 7.668,57.016 7.551,56.238 7.877,56.066 Z"
             id="path1158" />
        </g>
        <g
           style="fill:#004a29;fill-opacity:1"
           id="g1164"
           transform="matrix(0.22898,0,0,0.22898,-662.18459,-236.03398)">
          <path
             style="fill:#004a29;fill-opacity:1"
             inkscape:connector-curvature="0"
             d="M 24.725,0 C 12.088,0 12.088,0 12.088,12.637 v 13.187 c 0,3.004 0.002,5.286 0.172,7.032 l 1.549,-2.955 c 0.192,-0.366 0.358,-0.682 4.17,-4.071 l 4.255,-3.783 -0.609,5.66 c -0.53,4.92 -0.699,5.242 -0.895,5.616 l -2.623,5.005 c 1.688,0.133 3.85,0.133 6.619,0.133 12.637,0 12.637,0 12.637,-12.637 V 12.637 C 37.363,0 37.363,0 24.725,0 Z"
             id="path1162" />
        </g>
      </g>
      <path
         style="fill:#004a29;fill-opacity:1;stroke-width:0.238125"
         id="path1166"
         d="m -612.9502,-233.92555 -0.005,0.12121 -1.48376,0.40529 -0.84391,-1.28588 0.11311,-0.14097 c -0.081,-0.005 -0.16145,-0.0124 -0.24384,-0.0124 -2.09551,0 -3.79429,1.69878 -3.79429,3.79429 0,0.70604 0.19646,1.36494 0.53245,1.93095 l 0.81344,0.29647 -0.0231,0.64793 c 0.66414,0.57151 1.52638,0.91893 2.47126,0.91893 0.34243,0 0.6727,-0.0495 0.98846,-0.13453 l -0.65937,-0.77558 0.80677,-1.30945 1.4947,0.36267 0.0567,0.74127 c 0.68413,-0.68628 1.10704,-1.63282 1.10704,-2.67842 0,-1.1542 -0.51697,-2.18598 -1.32993,-2.8818 z m -3.76547,3.79905 -0.98655,-1.17992 0.81725,-1.30301 1.49184,0.37456 0.10454,1.53448 z"
         inkscape:connector-curvature="0" />
    </g>
  </g>
</svg>
