<?xml version="1.0" encoding="UTF-8" standalone="no"?>
<!-- Created with Inkscape (http://www.inkscape.org/) -->

<svg
   xmlns:dc="http://purl.org/dc/elements/1.1/"
   xmlns:cc="http://creativecommons.org/ns#"
   xmlns:rdf="http://www.w3.org/1999/02/22-rdf-syntax-ns#"
   xmlns:svg="http://www.w3.org/2000/svg"
   xmlns="http://www.w3.org/2000/svg"
   xmlns:sodipodi="http://sodipodi.sourceforge.net/DTD/sodipodi-0.dtd"
   xmlns:inkscape="http://www.inkscape.org/namespaces/inkscape"
   width="23.8125mm"
   height="25.135418mm"
   viewBox="0 0 23.8125 25.135419"
   version="1.1"
   id="svg8"
   inkscape:version="0.92.4 (5da689c313, 2019-01-14)"
   sodipodi:docname="few-distractions.svg">
  <defs
     id="defs2" />
  <sodipodi:namedview
     id="base"
     pagecolor="#ffffff"
     bordercolor="#666666"
     borderopacity="1.0"
     inkscape:pageopacity="0.0"
     inkscape:pageshadow="2"
     inkscape:zoom="4.7562233"
     inkscape:cx="46.19157"
     inkscape:cy="48.496306"
     inkscape:document-units="mm"
     inkscape:current-layer="layer1"
     showgrid="false"
     inkscape:window-width="1600"
     inkscape:window-height="838"
     inkscape:window-x="-8"
     inkscape:window-y="-8"
     inkscape:window-maximized="1"
     showguides="true"
     inkscape:guide-bbox="true" />
  <metadata
     id="metadata5">
    <rdf:RDF>
      <cc:Work
         rdf:about="">
        <dc:format>image/svg+xml</dc:format>
        <dc:type
           rdf:resource="http://purl.org/dc/dcmitype/StillImage" />
        <dc:title></dc:title>
      </cc:Work>
    </rdf:RDF>
  </metadata>
  <g
     inkscape:label="Layer 1"
     inkscape:groupmode="layer"
     id="layer1"
     transform="translate(589.0921,240.91043)">
    <g
       id="g4029"
       style="fill:#004a29;fill-opacity:1">
      <path
         inkscape:connector-curvature="0"
         id="path1567"
         d="m -589.0921,-218.75997 a 15.016295,7.6083117 0 0 0 11.94712,2.98495 15.016295,7.6083117 0 0 0 11.86538,-2.98495 z"
         style="opacity:1;fill:#004a29;fill-opacity:1;fill-rule:nonzero;stroke:none;stroke-width:1.56451547;stroke-linecap:round;stroke-linejoin:miter;stroke-miterlimit:4;stroke-dasharray:none;stroke-opacity:1;paint-order:markers fill stroke" />
      <g
         transform="translate(31.669667,-1.9428745)"
         id="g3992"
         style="fill:#004a29;fill-opacity:1">
        <g
           id="g3189"
           transform="matrix(0.35466301,0,0,0.40629726,-378.20195,-160.60911)"
           style="fill:#004a29;fill-opacity:1">
          <path
             style="stroke-width:0.26458332;fill:#004a29;fill-opacity:1"
             inkscape:connector-curvature="0"
             d="m -649.05874,-173.88598 c -0.17198,10e-4 -0.34078,0.003 -0.51752,0.003 l -0.41831,-5.3e-4 c -0.0175,0 -0.0344,-0.002 -0.0519,-0.003 h -33.86984 v 0.9398 1.64544 h 1.58565 v 29.82278 h 16.14408 v -5.93593 h 31.68174 v 5.93566 h 16.14382 V -171.301 h 1.58591 v -1.64544 -0.9398 h -32.28367 z m -18.74255,4.0304 v 12.2547 h -12.91511 v -12.2547 z m 0,26.51998 h -12.91511 v -12.25471 h 12.91511 z m 32.0249,-6.36746 h -29.13856 v -20.15279 h 29.13856 z m 15.80118,6.36746 h -12.9151 v -12.25471 h 12.9151 z m 0,-14.26528 h -12.9151 v -12.2547 h 12.9151 z"
             id="path2943" />
          <rect
             style="stroke-width:0.26458332;fill:#004a29;fill-opacity:1"
             x="-679.79034"
             y="-168.92981"
             width="11.063552"
             height="10.402887"
             id="rect2945" />
          <rect
             style="stroke-width:0.26458332;fill:#004a29;fill-opacity:1"
             x="-679.79034"
             y="-154.66454"
             width="11.063552"
             height="10.402887"
             id="rect2947" />
          <rect
             style="stroke-width:0.26458332;fill:#004a29;fill-opacity:1"
             x="-631.96429"
             y="-168.92953"
             width="11.062229"
             height="10.402359"
             id="rect2949" />
          <rect
             style="stroke-width:0.26458332;fill:#004a29;fill-opacity:1"
             x="-631.96429"
             y="-154.664"
             width="11.062229"
             height="10.402359"
             id="rect2951" />
          <rect
             style="stroke-width:0.26458332;fill:#004a29;fill-opacity:1"
             x="-663.98865"
             y="-168.92928"
             width="27.285685"
             height="18.300171"
             id="rect2953" />
          <rect
             style="stroke-width:0.26458332;fill:#004a29;fill-opacity:1"
             x="-635.58667"
             y="-175.97804"
             width="12.964583"
             height="0.92604166"
             id="rect2959" />
          <rect
             style="stroke-width:0.26458332;fill:#004a29;fill-opacity:1"
             x="-633.91083"
             y="-177.83012"
             width="12.964583"
             height="0.92604166"
             id="rect2961" />
          <rect
             style="stroke-width:0.26458332;fill:#004a29;fill-opacity:1"
             x="-635.67505"
             y="-179.506"
             width="12.964583"
             height="0.92604166"
             id="rect2963" />
        </g>
        <g
           id="g3949"
           transform="matrix(0.37331424,0,0,0.37331424,-390.34811,-166.07549)"
           style="fill:#004a29;fill-opacity:1">
          <path
             id="path3921"
             d="m -584.88151,-187.84616 c 1.90877,0 3.64595,-1.76401 3.64659,-3.70327 6.4e-4,-1.9408 -1.73628,-3.70716 -3.64659,-3.70716 -1.9103,0 -3.64733,1.76713 -3.64658,3.70716 7.4e-4,1.94003 1.73781,3.70327 3.64658,3.70327 z"
             inkscape:connector-curvature="0"
             style="color:#000000;stroke-width:0.26458332;fill:#004a29;fill-opacity:1" />
          <path
             id="path3923"
             d="m -588.70576,-187.05979 c -0.73106,0 -1.44831,0.36729 -1.87723,0.95929 l -5.764,7.95547 c -0.50087,0.69131 -0.57736,1.67045 -0.1902,2.4313 0.38715,0.76085 1.21375,1.27354 2.06743,1.27354 h 4.76336 c 0.3968,0 0.77094,-0.0933 1.09987,-0.26463 l 3.72138,1.85242 3.73791,-1.86069 c 0.33104,0.1742 0.70783,0.2729 1.10815,0.2729 h 4.74682 c 0.85505,0 1.68659,-0.50389 2.0757,-1.26527 0.38911,-0.76138 0.31147,-1.74716 -0.1902,-2.43957 l -5.764,-7.95547 c -0.43053,-0.59421 -1.15998,-0.95929 -1.89377,-0.95929 z m -1.00064,3.66349 4.49873,2.23282 v 7.42622 l -2.81171,-1.40586 c 0.42494,-0.42717 0.68639,-1.01118 0.68639,-1.66221 0,-1.31067 -1.06273,-2.37341 -2.37341,-2.37341 z m 9.66731,0 v 4.21756 c -1.31068,0 -2.37341,1.06274 -2.37341,2.37341 0,0.65103 0.26145,1.23504 0.68638,1.66221 l -2.82824,1.41413 v -7.43449 z"
             inkscape:connector-curvature="0"
             style="color:#000000;stroke-width:0.26458332;fill:#004a29;fill-opacity:1" />
        </g>
      </g>
    </g>
  </g>
</svg>
