<?xml version="1.0" encoding="UTF-8" standalone="no"?>
<!-- Created with Inkscape (http://www.inkscape.org/) -->

<svg
   xmlns:dc="http://purl.org/dc/elements/1.1/"
   xmlns:cc="http://creativecommons.org/ns#"
   xmlns:rdf="http://www.w3.org/1999/02/22-rdf-syntax-ns#"
   xmlns:svg="http://www.w3.org/2000/svg"
   xmlns="http://www.w3.org/2000/svg"
   xmlns:sodipodi="http://sodipodi.sourceforge.net/DTD/sodipodi-0.dtd"
   xmlns:inkscape="http://www.inkscape.org/namespaces/inkscape"
   width="23.8125mm"
   height="25.135416mm"
   viewBox="0 0 23.8125 25.135416"
   version="1.1"
   id="svg8"
   inkscape:version="0.92.4 (5da689c313, 2019-01-14)"
   sodipodi:docname="growth.svg">
  <defs
     id="defs2" />
  <sodipodi:namedview
     id="base"
     pagecolor="#ffffff"
     bordercolor="#666666"
     borderopacity="1.0"
     inkscape:pageopacity="0.0"
     inkscape:pageshadow="2"
     inkscape:zoom="3.2201928"
     inkscape:cx="-23.414714"
     inkscape:cy="54.620645"
     inkscape:document-units="mm"
     inkscape:current-layer="layer1"
     showgrid="false"
     inkscape:window-width="1600"
     inkscape:window-height="838"
     inkscape:window-x="-8"
     inkscape:window-y="-8"
     inkscape:window-maximized="1" />
  <metadata
     id="metadata5">
    <rdf:RDF>
      <cc:Work
         rdf:about="">
        <dc:format>image/svg+xml</dc:format>
        <dc:type
           rdf:resource="http://purl.org/dc/dcmitype/StillImage" />
        <dc:title />
      </cc:Work>
    </rdf:RDF>
  </metadata>
  <g
     inkscape:label="Layer 1"
     inkscape:groupmode="layer"
     id="layer1"
     transform="translate(657.32361,242.83942)">
    <g
       id="g4688">
      <g
         style="fill:#004a29;fill-opacity:1"
         transform="matrix(0.95341894,0,0,0.95341894,-68.319347,-12.581263)"
         id="g2624">
        <g
           style="fill:#004a29;fill-opacity:1"
           id="g2613" />
        <g
           id="g2023"
           transform="matrix(0.88790196,0,0,0.88790196,-95.17874,-6.7284227)"
           style="fill:#004a29;fill-opacity:1">
          <circle
             style="fill:#004a29;fill-opacity:1;stroke-width:0.26458332"
             id="circle1975"
             r="2.1431251"
             cy="-262.27731"
             cx="-567.2406" />
          <path
             style="fill:#004a29;fill-opacity:1;stroke-width:0.26458332"
             id="path1977"
             d="m -564.25083,-259.79022 h -5.95313 c -0.92604,0 -1.66687,0.74084 -1.66687,1.66688 v 7.43479 c 0,0.44979 0.37042,0.82021 0.82021,0.82021 0.44979,0 0.82021,-0.37042 0.82021,-0.82021 v -6.45583 h 0.34395 v 7.27604 8.04333 c 0,0.66146 0.55563,1.21709 1.21709,1.21709 h 0.0529 c 0.66146,0 1.21709,-0.55563 1.21709,-1.21709 v -8.04333 h 0.37041 v 8.04333 c 0,0.66146 0.55563,1.21709 1.21709,1.21709 0.66146,0 1.21708,-0.55563 1.21708,-1.21709 v -8.04333 -7.27604 h 0.34396 v 6.45583 c 0,0.44979 0.37042,0.82021 0.82021,0.82021 0.44979,0 0.82021,-0.37042 0.82021,-0.82021 v -7.43479 c 0,-0.92604 -0.74084,-1.66688 -1.64042,-1.66688 z"
             inkscape:connector-curvature="0" />
          <circle
             style="fill:#004a29;fill-opacity:1;stroke-width:0.26458332"
             id="circle1979"
             r="1.666875"
             cy="-257.46188"
             cx="-576.02478" />
          <path
             style="fill:#004a29;fill-opacity:1;stroke-width:0.26458332"
             id="path1981"
             d="m -573.72291,-255.47751 h -4.63021 c -0.74084,0 -1.32292,0.58209 -1.32292,1.32292 v 5.60917 c 0,0.37041 0.29104,0.66145 0.66146,0.66145 0.37042,0 0.66146,-0.29104 0.66146,-0.66145 v -4.94771 h 0.34396 v 5.63562 6.37646 c 0,0.50271 0.39687,0.89958 0.89958,0.89958 0.50271,0 0.89958,-0.39687 0.89958,-0.89958 v -6.40292 h 0.34396 v 6.37646 c 0,0.50271 0.39688,0.89959 0.89958,0.89959 0.50271,0 0.89959,-0.39688 0.89959,-0.89959 v -6.37646 -5.60916 h 0.34396 v 4.94771 c 0,0.37041 0.29104,0.66145 0.66145,0.66145 0.37042,0 0.66146,-0.29104 0.66146,-0.66145 v -5.60917 c 0,-0.74083 -0.58208,-1.32292 -1.32291,-1.32292 z"
             inkscape:connector-curvature="0" />
          <circle
             style="fill:#004a29;fill-opacity:1;stroke-width:0.26458332"
             id="circle1983"
             r="1.3229166"
             cy="-255.16"
             cx="-583.27435" />
          <path
             style="fill:#004a29;fill-opacity:1;stroke-width:0.26458332"
             id="path1985"
             d="m -581.29,-253.33438 h -3.96875 c -0.635,0 -1.16416,0.52916 -1.16416,1.16416 v 4.70959 c 0,0.3175 0.26458,0.58208 0.58208,0.58208 0.3175,0 0.58208,-0.26458 0.58208,-0.58208 v -4.23334 h 0.34396 v 4.78896 5.52979 c 0,0.42334 0.34396,0.74084 0.74083,0.74084 0.39688,0 0.74084,-0.34396 0.74084,-0.74084 v -5.50333 h 0.34396 v 5.52979 c 0,0.42334 0.34395,0.74084 0.74083,0.74084 0.39687,0 0.74083,-0.34396 0.74083,-0.74084 v -5.52979 -4.81542 h 0.34396 v 4.20688 c 0,0.3175 0.26458,0.58208 0.58208,0.58208 0.3175,0 0.58209,-0.26458 0.58209,-0.58208 v -4.68313 c -0.0265,-0.66145 -0.55563,-1.16416 -1.19063,-1.16416 z"
             inkscape:connector-curvature="0" />
        </g>
      </g>
      <path
         inkscape:connector-curvature="0"
         id="path1567"
         d="m -657.32361,-220.68896 a 15.016295,7.6083117 0 0 0 11.94712,2.98495 15.016295,7.6083117 0 0 0 11.86538,-2.98495 z"
         style="opacity:1;fill:#004a29;fill-opacity:1;fill-rule:nonzero;stroke:none;stroke-width:1.56451547;stroke-linecap:round;stroke-linejoin:miter;stroke-miterlimit:4;stroke-dasharray:none;stroke-opacity:1;paint-order:markers fill stroke" />
    </g>
  </g>
</svg>
