<?xml version="1.0" encoding="UTF-8" standalone="no"?>
<!-- Created with Inkscape (http://www.inkscape.org/) -->

<svg
   xmlns:dc="http://purl.org/dc/elements/1.1/"
   xmlns:cc="http://creativecommons.org/ns#"
   xmlns:rdf="http://www.w3.org/1999/02/22-rdf-syntax-ns#"
   xmlns:svg="http://www.w3.org/2000/svg"
   xmlns="http://www.w3.org/2000/svg"
   xmlns:sodipodi="http://sodipodi.sourceforge.net/DTD/sodipodi-0.dtd"
   xmlns:inkscape="http://www.inkscape.org/namespaces/inkscape"
   width="23.8125mm"
   height="25.135418mm"
   viewBox="0 0 23.8125 25.135419"
   version="1.1"
   id="svg8"
   inkscape:version="0.92.4 (5da689c313, 2019-01-14)"
   sodipodi:docname="independence.svg">
  <defs
     id="defs2" />
  <sodipodi:namedview
     id="base"
     pagecolor="#ffffff"
     bordercolor="#666666"
     borderopacity="1.0"
     inkscape:pageopacity="0.0"
     inkscape:pageshadow="2"
     inkscape:zoom="4.26"
     inkscape:cx="1.6657645"
     inkscape:cy="38.315493"
     inkscape:document-units="mm"
     inkscape:current-layer="layer1"
     showgrid="false"
     inkscape:window-width="1600"
     inkscape:window-height="838"
     inkscape:window-x="-8"
     inkscape:window-y="-8"
     inkscape:window-maximized="1"
     showguides="true"
     inkscape:guide-bbox="true" />
  <metadata
     id="metadata5">
    <rdf:RDF>
      <cc:Work
         rdf:about="">
        <dc:format>image/svg+xml</dc:format>
        <dc:type
           rdf:resource="http://purl.org/dc/dcmitype/StillImage" />
        <dc:title></dc:title>
      </cc:Work>
    </rdf:RDF>
  </metadata>
  <g
     inkscape:label="Layer 1"
     inkscape:groupmode="layer"
     id="layer1"
     transform="translate(589.0921,240.91043)">
    <g
       id="g2432">
      <path
         inkscape:connector-curvature="0"
         id="path1567"
         d="m -589.0921,-218.75997 a 15.016295,7.6083117 0 0 0 11.94712,2.98495 15.016295,7.6083117 0 0 0 11.86538,-2.98495 z"
         style="opacity:1;fill:#004a29;fill-opacity:1;fill-rule:nonzero;stroke:none;stroke-width:1.56451547;stroke-linecap:round;stroke-linejoin:miter;stroke-miterlimit:4;stroke-dasharray:none;stroke-opacity:1;paint-order:markers fill stroke" />
      <g
         style="fill:#004a29;fill-opacity:1"
         transform="matrix(0.26458333,0,0,0.26458333,-618.99839,-247.1653)"
         id="g2409">
        <g
           style="fill:#004a29;fill-opacity:1"
           transform="matrix(1.550134,0,0,1.550134,108.36601,11.704422)"
           id="g2383">
          <path
             style="fill:#004a29;fill-opacity:1"
             inkscape:connector-curvature="0"
             d="m 52.3,29.9 -0.6,3.2 C 51.5,33 51.3,32.9 51,32.8 c -0.1,0 -0.8,-0.4 -1.2,-0.5 -0.7,-0.2 -1.4,-0.4 -2.2,-0.6 -1.3,-0.2 -2.8,-0.3 -4.3,-0.2 0.1,-1.6 -0.1,-5.9 -3.1,-6.3 L 39.5,26 36,22.7 c 0,0 0.7,-1.8 1.1,-3.8 0,0 1.3,-4.1 3.9,-5.3 0.4,-0.2 0.9,-0.2 1.3,0 1.6,0.9 6.2,3.5 8.1,6.8 -0.1,0 2.8,4.4 1.9,9.5 z"
             id="path2365" />
          <path
             style="fill:#004a29;fill-opacity:1"
             inkscape:connector-curvature="0"
             d="m 39,26.4 c -0.8,0.8 -3.6,2.9 -4.4,3.2 -0.5,0.1 -0.9,0.2 -1.5,0.2 -0.5,0 -0.9,-0.1 -1.2,-0.1 -1.4,-0.2 -9.2,-0.9 -9.2,-0.9 -0.6,-0.1 -1.2,-0.3 -1.6,-0.8 -0.4,-0.5 -0.6,-1.1 -0.5,-1.7 0.1,-0.6 0.3,-1.2 0.8,-1.6 0.5,-0.4 1.1,-0.6 1.7,-0.5 0,0 8,0.7 9.5,0.9 0.5,0.1 1,-0.1 1.4,-0.4 0.6,-0.4 1.1,-0.9 1.7,-1.5 z"
             id="path2367" />
          <circle
             style="fill:#004a29;fill-opacity:1"
             cx="33.299999"
             cy="12.6"
             r="4.9000001"
             id="circle2369" />
          <path
             style="fill:#004a29;fill-opacity:1"
             inkscape:connector-curvature="0"
             d="m 53.5,29.8 h 1.6 c 0.1,0 0.2,-0.1 0.2,-0.2 v 0 c 0.3,-1.8 1.7,-5.7 1.7,-5.7 0.2,-0.5 0.1,-1.1 -0.4,-1.3 -0.5,-0.2 -1.1,-0.1 -1.3,0.4 0,0.1 -1.2,2.4 -1.8,6.2 0,0.1 0,0.2 -0.1,0.3 -0.1,0.2 0,0.3 0.1,0.3 z"
             id="path2371" />
          <path
             style="fill:#004a29;fill-opacity:1"
             inkscape:connector-curvature="0"
             d="m 58.1,32.5 c 0.4,-2.7 2.6,-8.7 2.6,-8.7 0.4,-0.7 0.1,-1.6 -0.6,-2 -0.7,-0.4 -1.6,-0.1 -2,0.6 -0.1,0.1 -1.9,3.7 -2.8,9.5 -0.3,1.6 -0.5,3.6 -0.6,5.8 H 49 c 3.1,-1.4 2.7,-3.9 2.7,-3.9 0,-0.1 -0.8,-0.4 -1,-0.5 -0.3,-0.2 -0.7,-0.3 -1,-0.4 -0.7,-0.2 -1.4,-0.4 -2.1,-0.5 -1.4,-0.3 -2.8,-0.3 -4.2,-0.2 -0.4,0 -6.1,1.2 -8.4,2.1 -1.8,0.7 -3.7,1.4 -5.2,2.7 -0.2,0.2 -0.4,0.4 -0.6,0.6 -1,1.1 -1.7,2.7 -0.7,4 1.3,1.5 3,2.8 4.6,3.9 1.2,0.9 2.5,1.9 3.3,3.3 0.1,0.1 0.5,1.1 0.8,1.9 0.2,0.5 0.7,0.9 1.3,0.8 v 0 c -0.3,0.9 -0.6,1.9 -0.9,2.9 -0.3,0.8 0.1,1.6 0.9,1.9 0.2,0.1 0.3,0.1 0.5,0.1 0.6,0 1.2,-0.4 1.4,-1 0.5,-1.4 0.9,-2.7 1.2,-4.1 l 1.6,-0.1 c 0.1,0 0.3,-0.1 0.4,-0.2 0.1,-0.2 0.2,-0.4 0.1,-0.6 C 43,49.5 42.5,48.7 42,48 c 0.1,-0.3 0.1,-0.6 0.1,-0.8 h 13 c 0.4,2.6 1.1,5.3 2.1,8.2 0.2,0.6 0.8,1 1.4,1 0.2,0 0.3,0 0.5,-0.1 C 59.9,56 60.3,55.2 60,54.4 59.1,51.9 57.7,44 57.6,43.1 c 0,-2 0.3,-9.1 0.5,-10.6 z m -23.7,7.2 3.1,-0.6 c 0.6,0 1.4,-0.1 2.4,-0.1 0,0.1 -0.2,5.2 -0.3,5.7 -2.7,-3.1 -5.2,-5 -5.2,-5 z m 8,6.1 c 0.1,-0.9 0.2,-1.8 0.3,-2.7 h 12.1 c 0.1,0.9 0.2,1.8 0.3,2.7 z"
             id="path2373" />
          <path
             style="fill:#004a29;fill-opacity:1"
             inkscape:connector-curvature="0"
             d="M 31.1,30.7 H 4.8 c -0.9,0 -1.6,0.7 -1.6,1.6 0,0.9 0.7,1.6 1.6,1.6 h 11.5 v 20.5 h -5.7 c -0.5,0 -0.9,0.4 -0.9,0.9 0,0.5 0.4,0.9 0.9,0.9 h 14.6 c 0.5,0 0.9,-0.4 0.9,-0.9 0,-0.5 -0.4,-0.9 -0.9,-0.9 H 19.5 V 34 H 31 c 0.9,0 1.6,-0.7 1.6,-1.6 0.1,-1 -0.6,-1.7 -1.5,-1.7 z"
             id="path2375" />
          <g
             style="fill:#004a29;fill-opacity:1"
             id="g2381">
            <path
               style="fill:#004a29;fill-opacity:1"
               inkscape:connector-curvature="0"
               d="m 12.7,25.6 c 0,0.4 0.3,0.8 0.8,0.8 h 5.7 v 1.2 h -10 c -1.1,0 -2,-0.9 -2,-2 0,-1.1 0.9,-2 2,-2 H 19 v 1.2 h -5.7 c -0.3,0 -0.6,0.3 -0.6,0.8 z"
               id="path2377" />
            <path
               style="fill:#004a29;fill-opacity:1"
               inkscape:connector-curvature="0"
               d="m 11.6,20.6 c 0,0.4 -0.4,0.8 -0.8,0.8 H 5.2 v 1.2 H 15 c 1.1,0 2,-0.9 2,-2 0,-1.1 -0.9,-2 -2,-2 H 5.2 v 1.2 h 5.7 c 0.4,0 0.7,0.4 0.7,0.8 z"
               id="path2379" />
          </g>
        </g>
      </g>
    </g>
  </g>
</svg>
