<?xml version="1.0" encoding="UTF-8" standalone="no"?>
<!-- Created with Inkscape (http://www.inkscape.org/) -->

<svg
   xmlns:dc="http://purl.org/dc/elements/1.1/"
   xmlns:cc="http://creativecommons.org/ns#"
   xmlns:rdf="http://www.w3.org/1999/02/22-rdf-syntax-ns#"
   xmlns:svg="http://www.w3.org/2000/svg"
   xmlns="http://www.w3.org/2000/svg"
   xmlns:sodipodi="http://sodipodi.sourceforge.net/DTD/sodipodi-0.dtd"
   xmlns:inkscape="http://www.inkscape.org/namespaces/inkscape"
   width="23.8125mm"
   height="25.135418mm"
   viewBox="0 0 23.8125 25.135419"
   version="1.1"
   id="svg8"
   inkscape:version="0.92.4 (5da689c313, 2019-01-14)"
   sodipodi:docname="monitoring.svg">
  <defs
     id="defs2" />
  <sodipodi:namedview
     id="base"
     pagecolor="#ffffff"
     bordercolor="#666666"
     borderopacity="1.0"
     inkscape:pageopacity="0.0"
     inkscape:pageshadow="2"
     inkscape:zoom="6.7263154"
     inkscape:cx="45"
     inkscape:cy="47.500002"
     inkscape:document-units="mm"
     inkscape:current-layer="layer1"
     showgrid="false"
     inkscape:window-width="1600"
     inkscape:window-height="838"
     inkscape:window-x="-8"
     inkscape:window-y="-8"
     inkscape:window-maximized="1"
     showguides="true"
     inkscape:guide-bbox="true" />
  <metadata
     id="metadata5">
    <rdf:RDF>
      <cc:Work
         rdf:about="">
        <dc:format>image/svg+xml</dc:format>
        <dc:type
           rdf:resource="http://purl.org/dc/dcmitype/StillImage" />
        <dc:title></dc:title>
      </cc:Work>
    </rdf:RDF>
  </metadata>
  <g
     inkscape:label="Layer 1"
     inkscape:groupmode="layer"
     id="layer1"
     transform="translate(589.0921,240.91043)">
    <g
       id="g2535"
       style="fill:#004a29;fill-opacity:1">
      <path
         inkscape:connector-curvature="0"
         id="path1567"
         d="m -589.0921,-218.75997 a 15.016295,7.6083117 0 0 0 11.94712,2.98495 15.016295,7.6083117 0 0 0 11.86538,-2.98495 z"
         style="opacity:1;fill:#004a29;fill-opacity:1;fill-rule:nonzero;stroke:none;stroke-width:1.56451547;stroke-linecap:round;stroke-linejoin:miter;stroke-miterlimit:4;stroke-dasharray:none;stroke-opacity:1;paint-order:markers fill stroke" />
      <g
         transform="matrix(0.0874081,0,0,0.0874081,-589.0921,-240.91043)"
         id="g2460"
         style="fill:#004a29;fill-opacity:1">
        <path
           id="path2434"
           d="m 272.429,180.573 h -30.788 v -79.804 l 8.264,6.148 5.972,-8.021 -72.785,-54.154 -65.674,49.043 c 0.47,3.684 0.835,7.563 1.081,11.671 l 5.642,-4.213 v 79.33 H 95.957 v 6 H 272.429 Z M 129.641,97.136 183.102,57.214 236.141,96.676 v 83.896 h -106.5 z"
           inkscape:connector-curvature="0"
           style="fill:#004a29;fill-opacity:1" />
        <path
           id="path2436"
           d="m 189.159,140.4 c -0.985,-1.906 -2.962,-3.109 -5.108,-3.109 h -14.497 c 0.043,-3.064 0.471,-6.213 1.041,-9.237 l -7.746,-8.442 c -0.883,-0.959 -1.338,-2.207 -1.284,-3.512 0.056,-1.305 0.618,-2.51 1.58,-3.394 0.904,-0.829 2.076,-1.285 3.303,-1.285 1.367,0 2.68,0.576 3.604,1.582 l 3.191,3.479 c 0.789,-4.272 -1.083,-8.801 -5.012,-9.629 -4.364,-0.922 -10.752,1.317 -13.445,8.136 -3.643,9.396 -4.491,15.49 -3.329,25.763 1.201,6.013 5.13,7.608 9.078,7.935 0.353,0.068 0.718,0.106 1.091,0.106 v -0.001 h 18.925 l 11.619,22.481 c 1.021,1.977 3.031,3.111 5.113,3.111 0.888,0 1.791,-0.206 2.636,-0.644 2.82,-1.459 3.926,-4.927 2.467,-7.748 z"
           inkscape:connector-curvature="0"
           style="fill:#004a29;fill-opacity:1" />
        <path
           id="path2438"
           d="m 178.026,123.393 -8.823,-9.612 c -1.395,-1.521 -3.761,-1.622 -5.281,-0.227 -1.521,1.396 -1.622,3.761 -0.227,5.282 l 9.935,10.822 c 0.704,0.768 1.713,1.212 2.754,1.212 h 15.334 c 0.92,0 1.752,-0.346 2.402,-0.896 l 0.534,1.041 0.329,0.644 1.895,-0.97 -0.756,-1.476 -0.732,-1.431 c 0.037,-0.213 0.066,-0.428 0.066,-0.651 0,-1.481 -0.868,-2.749 -2.117,-3.354 l -0.739,-1.443 -2.777,-5.423 -1.895,0.971 2.234,4.363 0.588,1.148 z"
           inkscape:connector-curvature="0"
           style="fill:#004a29;fill-opacity:1" />
        <circle
           id="circle2440"
           r="11.23"
           cy="96.613998"
           cx="177.343"
           style="fill:#004a29;fill-opacity:1" />
        <path
           id="path2442"
           d="m 175.536,152.084 h -24.059 l -8.339,-25.973 c -0.525,-1.628 -2.269,-2.523 -3.894,-2.001 -1.628,0.524 -2.525,2.267 -2,3.895 l -0.001,-0.001 9.029,28.123 c 0.411,1.282 1.603,2.15 2.947,2.15 h 26.317 c 1.709,0 3.097,-1.388 3.097,-3.097 0,-1.71 -1.388,-3.096 -3.097,-3.096 z"
           inkscape:connector-curvature="0"
           style="fill:#004a29;fill-opacity:1" />
        <rect
           id="rect2444"
           height="3.71"
           width="53.146999"
           y="132.492"
           x="178.69701"
           style="fill:#004a29;fill-opacity:1" />
        <rect
           id="rect2446"
           height="3.29"
           width="19.542999"
           y="126.993"
           x="208.948"
           style="fill:#004a29;fill-opacity:1" />
        <rect
           id="rect2448"
           height="3.289"
           width="19.542999"
           y="121.866"
           x="208.948"
           style="fill:#004a29;fill-opacity:1" />
        <rect
           id="rect2450"
           height="3.29"
           width="19.542999"
           y="116.738"
           x="208.948"
           style="fill:#004a29;fill-opacity:1" />
        <path
           id="path2452"
           d="m 35.865,224.819 c 0,6.83 5.537,12.363 12.363,12.363 6.828,0 12.365,-5.533 12.365,-12.363 v -79.246 h 4.635 v 79.246 c 0,6.83 5.537,12.363 12.363,12.363 6.828,0 12.365,-5.533 12.365,-12.363 V 126.82 107.881 74.859 c 0.593,1.217 1.191,2.611 1.781,4.239 2.817,7.814 5.188,20.63 5.179,40.64 0.002,5.514 -0.176,11.571 -0.563,18.224 -0.258,4.408 3.109,8.193 7.52,8.451 0.158,0.008 0.316,0.014 0.473,0.014 4.207,0 7.732,-3.281 7.981,-7.535 0.402,-6.93 0.592,-13.298 0.592,-19.153 -0.039,-30.184 -4.861,-46.887 -11.434,-56.932 -3.286,-4.986 -7.129,-8.185 -10.68,-9.956 -3.4,-1.716 -6.39,-2.108 -8.195,-2.132 -0.127,-0.007 -0.252,-0.02 -0.381,-0.02 h -4.814 l -2.337,18.269 -9.75,-11.75 5.883,-6.519 H 54.612 l 5.883,6.519 -9.75,11.75 -2.337,-18.269 h -4.814 c -0.096,0 -0.188,0.01 -0.281,0.014 -2.968,-0.046 -9.602,1.26 -15.415,7.559 -5.918,6.351 -10.891,16.875 -13.369,34.767 0,0.001 -10e-4,0.002 -10e-4,0.004 h -0.002 c -1.029,7.475 -1.624,16.274 -1.624,26.694 0,5.854 0.188,12.224 0.595,19.157 0.25,4.252 3.774,7.533 7.978,7.533 0.157,0 0.317,-0.004 0.477,-0.014 4.411,-0.26 7.778,-4.045 7.519,-8.455 -0.391,-6.65 -0.566,-12.709 -0.566,-18.222 0,-9.812 0.561,-17.895 1.475,-24.507 0,0 0,-0.002 0,-0.003 1.332,-9.708 3.428,-16.155 5.488,-20.377 v 33.031 0.589 l -4.827,3.27 c -0.042,1.209 -0.072,2.439 -0.095,3.688 l 6.756,-4.576 17.945,26.495 -33.533,22.711 -17.946,-26.493 6.879,-4.66 c -0.036,-1.205 -0.061,-2.389 -0.084,-3.566 L 0,132.763 l 21.311,31.463 8.555,-5.795 6,-4.063 v 70.451 z"
           inkscape:connector-curvature="0"
           style="fill:#004a29;fill-opacity:1" />
        <rect
           id="rect2454"
           height="19.211"
           width="2"
           transform="matrix(0.8198,-0.5727,0.5727,0.8198,-66.5927,46.2339)"
           y="119.307"
           x="39.154999"
           style="fill:#004a29;fill-opacity:1" />
        <path
           id="path2456"
           d="m 31.059,128.915 c 0.039,1.217 0.087,2.45 0.141,3.694 l 6.636,9.501 1.64,-1.145 z"
           inkscape:connector-curvature="0"
           style="fill:#004a29;fill-opacity:1" />
        <path
           id="path2458"
           d="M 66.569,44.699 C 77.256,42.951 85.41,33.681 85.41,22.5 85.41,10.074 75.338,0 62.91,0 50.484,0 40.41,10.074 40.41,22.5 c 0,11.181 8.156,20.451 18.841,22.199 1.191,0.195 2.413,0.301 3.659,0.301 1.247,0 2.468,-0.106 3.659,-0.301 z"
           inkscape:connector-curvature="0"
           style="fill:#004a29;fill-opacity:1" />
      </g>
    </g>
  </g>
</svg>
