<?xml version="1.0" encoding="UTF-8" standalone="no"?>
<!-- Created with Inkscape (http://www.inkscape.org/) -->

<svg
   xmlns:dc="http://purl.org/dc/elements/1.1/"
   xmlns:cc="http://creativecommons.org/ns#"
   xmlns:rdf="http://www.w3.org/1999/02/22-rdf-syntax-ns#"
   xmlns:svg="http://www.w3.org/2000/svg"
   xmlns="http://www.w3.org/2000/svg"
   xmlns:sodipodi="http://sodipodi.sourceforge.net/DTD/sodipodi-0.dtd"
   xmlns:inkscape="http://www.inkscape.org/namespaces/inkscape"
   width="25.664591mm"
   height="17.000889mm"
   viewBox="0 0 25.664591 17.000889"
   version="1.1"
   id="svg8"
   inkscape:version="0.92.4 (5da689c313, 2019-01-14)"
   sodipodi:docname="placement-icon.svg">
  <defs
     id="defs2" />
  <sodipodi:namedview
     id="base"
     pagecolor="#ffffff"
     bordercolor="#666666"
     borderopacity="1.0"
     inkscape:pageopacity="0.0"
     inkscape:pageshadow="2"
     inkscape:zoom="1.4"
     inkscape:cx="-37.757005"
     inkscape:cy="100.85072"
     inkscape:document-units="mm"
     inkscape:current-layer="layer1"
     showgrid="false"
     inkscape:window-width="1600"
     inkscape:window-height="838"
     inkscape:window-x="-8"
     inkscape:window-y="-8"
     inkscape:window-maximized="1" />
  <metadata
     id="metadata5">
    <rdf:RDF>
      <cc:Work
         rdf:about="">
        <dc:format>image/svg+xml</dc:format>
        <dc:type
           rdf:resource="http://purl.org/dc/dcmitype/StillImage" />
        <dc:title></dc:title>
      </cc:Work>
    </rdf:RDF>
  </metadata>
  <g
     inkscape:label="Layer 1"
     inkscape:groupmode="layer"
     id="layer1"
     transform="translate(188.31131,-34.914588)">
    <g
       id="g1096">
      <g
         style="fill:#012213;fill-opacity:1;stroke:none;stroke-opacity:1"
         inkscape:label="Layer 1"
         id="layer1-1"
         transform="matrix(0.66156132,0,0,0.66156132,-260.67447,-50.074308)">
        <g
           style="fill:#012213;fill-opacity:1;stroke:none;stroke-opacity:1"
           id="g4513"
           transform="matrix(0.38087599,0,0,0.38087599,84.152424,129.23006)">
          <g
             style="fill:#012213;fill-opacity:1;stroke:none;stroke-opacity:1"
             id="g4489"
             transform="translate(84.952276,-4.0030469)">
            <path
               sodipodi:nodetypes="scsscccssccccccccccccccssssccssssscccccssccccccccccccccccccccccccccccccsscccsssccs"
               id="path4475"
               d="M 61,8 H 56 V 6 C 56,3.790861 54.209139,2 52,2 H 23 c -2.760053,0.00331 -4.996694,2.2399469 -5,5 v 11 h -2 c -1.656854,0 -3,1.343146 -3,3 v 3.2 c -1.094281,0.259139 -2.028935,0.966935 -2.575,1.95 l -6.3,11.37 C 4.0440034,37.667091 4.001036,37.832086 4,38 L 4.01,48.041 2.687,50.43 c -0.5391069,0.967095 -0.1899105,2.188162 0.779,2.724 L 19.2,61.872 c 0.46587,0.263187 1.018197,0.32736 1.532,0.178 0.505361,-0.142625 0.931635,-0.483428 1.182,-0.945 l 1.377,-2.48 4.372,-3.877 c 0.07189,-0.06333 0.134207,-0.136764 0.185,-0.218 L 32.554,47 H 54 c 1.656854,0 3,-1.343146 3,-3 V 21 c 0,-1.656854 -1.343146,-3 -3,-3 h -4 v -2 h 8 c 2.209139,0 4,-1.790861 4,-4 V 9 C 62,8.4477153 61.552285,8 61,8 Z M 23,4 H 48.556 C 48.196076,4.6053465 48.004145,5.2957468 48,6 V 24.42 L 35,31.848 20,23.277 V 7 c 0,-1.6568542 1.343146,-3 3,-3 z m -7,16 h 2 v 2.134 L 15.15,20.505 C 15.322674,20.19681 15.646759,20.004266 16,20 Z m 10.229,33.348 -4.392,3.894 c -0.0848,0.07501 -0.156157,0.163957 -0.211,0.263 L 20.175,60.125 4.435,51.4 5.885,48.78 C 5.9663159,48.633036 6.0093049,48.467959 6.01,48.3 L 6,38.258 12.174,27.115 c 0.365302,-0.648486 1.055776,-1.045509 1.8,-1.035 1.085392,0.03553 1.947813,0.924032 1.951,2.01 -0.0039,0.337797 -0.09156,0.669348 -0.255,0.965 l -2.91,5.25 c -0.268632,0.483713 -0.09341,1.093627 0.391,1.361 2.398176,1.319115 3.283885,4.325346 1.984,6.734 l -2.941,4.007 1.612,0.603925 C 17.23369,47.010925 14.752357,47 16,47 H 30.2 Z M 54,20 c 0.352202,0.0032 0.676045,0.193737 0.85,0.5 L 50,23.277 V 20 Z M 50,6 c 0,-2.6666655 4,-2.6666655 4,0 v 6 c 0.0041,0.704253 0.196076,1.394653 0.556,2 H 50 Z m 10,6 c 0,2.666666 -4,2.666666 -4,0 v -2 h 4 z"
               inkscape:connector-curvature="0"
               style="fill:#012213;fill-opacity:1;stroke:none;stroke-opacity:1" />
            <rect
               id="rect4477"
               height="2"
               width="4"
               y="7"
               x="24"
               style="fill:#012213;fill-opacity:1;stroke:none;stroke-opacity:1" />
            <rect
               id="rect4479"
               height="2"
               width="14"
               y="7"
               x="30"
               style="fill:#012213;fill-opacity:1;stroke:none;stroke-opacity:1" />
            <rect
               id="rect4481"
               height="2"
               width="20"
               y="12"
               x="24"
               style="fill:#012213;fill-opacity:1;stroke:none;stroke-opacity:1" />
            <rect
               id="rect4483"
               height="2"
               width="20"
               y="17"
               x="24"
               style="fill:#012213;fill-opacity:1;stroke:none;stroke-opacity:1" />
            <rect
               id="rect4485"
               height="2"
               width="6"
               y="22"
               x="24"
               style="fill:#012213;fill-opacity:1;stroke:none;stroke-opacity:1" />
            <rect
               id="rect4487"
               height="2"
               width="12"
               y="22"
               x="32"
               style="fill:#012213;fill-opacity:1;stroke:none;stroke-opacity:1" />
          </g>
        </g>
      </g>
      <path
         style="fill:none;stroke:#012213;stroke-width:0.25031599px;stroke-linecap:butt;stroke-linejoin:miter;stroke-opacity:1"
         d="m -188.31131,51.790319 h 25.66459"
         id="path827-1"
         inkscape:connector-curvature="0" />
    </g>
  </g>
</svg>
