<?xml version="1.0" encoding="UTF-8" standalone="no"?>
<!-- Created with Inkscape (http://www.inkscape.org/) -->

<svg
   xmlns:dc="http://purl.org/dc/elements/1.1/"
   xmlns:cc="http://creativecommons.org/ns#"
   xmlns:rdf="http://www.w3.org/1999/02/22-rdf-syntax-ns#"
   xmlns:svg="http://www.w3.org/2000/svg"
   xmlns="http://www.w3.org/2000/svg"
   xmlns:sodipodi="http://sodipodi.sourceforge.net/DTD/sodipodi-0.dtd"
   xmlns:inkscape="http://www.inkscape.org/namespaces/inkscape"
   width="25.665001mm"
   height="25.159321mm"
   viewBox="0 0 25.665001 25.159322"
   version="1.1"
   id="svg3624"
   inkscape:version="0.92.4 (5da689c313, 2019-01-14)"
   sodipodi:docname="receive-visa.svg">
  <defs
     id="defs3618" />
  <sodipodi:namedview
     id="base"
     pagecolor="#ffffff"
     bordercolor="#666666"
     borderopacity="1.0"
     inkscape:pageopacity="0.0"
     inkscape:pageshadow="2"
     inkscape:zoom="3.959798"
     inkscape:cx="49.1563"
     inkscape:cy="55.145108"
     inkscape:document-units="mm"
     inkscape:current-layer="layer1"
     showgrid="false"
     inkscape:window-width="1600"
     inkscape:window-height="838"
     inkscape:window-x="-8"
     inkscape:window-y="-8"
     inkscape:window-maximized="1" />
  <metadata
     id="metadata3621">
    <rdf:RDF>
      <cc:Work
         rdf:about="">
        <dc:format>image/svg+xml</dc:format>
        <dc:type
           rdf:resource="http://purl.org/dc/dcmitype/StillImage" />
        <dc:title />
      </cc:Work>
    </rdf:RDF>
  </metadata>
  <g
     inkscape:label="Layer 1"
     inkscape:groupmode="layer"
     id="layer1"
     transform="translate(-115.94687,-127.33833)">
    <g
       id="g4473"
       transform="matrix(0.87403788,0,0,0.87403788,64.890443,18.305002)">
      <g
         id="g1635"
         transform="matrix(0.44569531,0,0,0.44569531,66.870627,128.45115)"
         style="fill:#000080;fill-opacity:1">
        <g
           id="g1606"
           style="fill:#000080;fill-opacity:1">
          <path
             id="path1582"
             d="m 25.17,24 h 5.66 a 11.94,11.94 0 0 0 0,-4 h -5.66 a 11.68,11.68 0 0 0 0,4 z"
             inkscape:connector-curvature="0"
             style="fill:#000080;fill-opacity:1" />
          <path
             id="path1584"
             d="m 32.85,20 a 13.41,13.41 0 0 1 0,4 h 2.89 A 8.14,8.14 0 0 0 35.91,20.87 7.88,7.88 0 0 0 35.74,20 Z"
             inkscape:connector-curvature="0"
             style="fill:#000080;fill-opacity:1" />
          <path
             id="path1586"
             d="M 40,9 H 14 v 38 h 26 a 2,2 0 0 0 2,-2 V 11 A 2,2 0 0 0 40,9 Z m -21.39,9.6 a 10,10 0 1 1 0,6.8 c -0.77,-0.77 -0.78,-6.02 0,-6.8 z M 38,42 H 20 a 1,1 0 0 1 0,-2 h 18 a 1,1 0 0 1 0,2 z"
             inkscape:connector-curvature="0"
             style="fill:#000080;fill-opacity:1" />
          <path
             id="path1588"
             d="m 6,13 v 30 a 4,4 0 0 0 4,4 h 2 V 9 h -2 a 4,4 0 0 0 -4,4 z"
             inkscape:connector-curvature="0"
             style="fill:#000080;fill-opacity:1" />
          <path
             id="path1590"
             d="M 40,3 A 2,2 0 0 0 37.61,1 C 12.31,7 17.1,5.91 12,7 h 28 z"
             inkscape:connector-curvature="0"
             style="fill:#000080;fill-opacity:1" />
          <path
             id="path1592"
             d="M 25,14.59 A 8,8 0 0 0 21.09,18 h 2.48 A 15.18,15.18 0 0 1 25,14.59 Z"
             inkscape:connector-curvature="0"
             style="fill:#000080;fill-opacity:1" />
          <path
             id="path1594"
             d="m 30.36,18 a 13,13 0 0 0 -2.14,-4 h -0.44 a 13,13 0 0 0 -2.14,4 z"
             inkscape:connector-curvature="0"
             style="fill:#000080;fill-opacity:1" />
          <path
             id="path1596"
             d="M 34.91,18 A 8.14,8.14 0 0 0 31,14.59 15.18,15.18 0 0 1 32.43,18 Z"
             inkscape:connector-curvature="0"
             style="fill:#000080;fill-opacity:1" />
          <path
             id="path1598"
             d="M 34.91,26 H 32.43 A 15.18,15.18 0 0 1 31,29.41 8,8 0 0 0 34.91,26 Z"
             inkscape:connector-curvature="0"
             style="fill:#000080;fill-opacity:1" />
          <path
             id="path1600"
             d="m 25.64,26 a 13.11,13.11 0 0 0 2.12,4 3.84,3.84 0 0 0 0.48,0 13.75,13.75 0 0 0 2.12,-4 z"
             inkscape:connector-curvature="0"
             style="fill:#000080;fill-opacity:1" />
          <path
             id="path1602"
             d="M 21.09,26 A 8.07,8.07 0 0 0 25,29.41 15.18,15.18 0 0 1 23.57,26 Z"
             inkscape:connector-curvature="0"
             style="fill:#000080;fill-opacity:1" />
          <path
             id="path1604"
             d="m 23.15,20 h -2.89 a 7.75,7.75 0 0 0 0,4 h 2.89 a 13.41,13.41 0 0 1 0,-4 z"
             inkscape:connector-curvature="0"
             style="fill:#000080;fill-opacity:1" />
        </g>
      </g>
      <rect
         y="133.40985"
         x="60.602753"
         height="0.93347639"
         width="7.4713559"
         id="rect4412"
         style="opacity:1;fill:#000080;fill-opacity:1;fill-rule:nonzero;stroke:none;stroke-width:0.27647248;stroke-linecap:round;stroke-linejoin:miter;stroke-miterlimit:4;stroke-dasharray:none;stroke-opacity:1;paint-order:markers fill stroke" />
      <rect
         y="135.4707"
         x="62.556595"
         height="0.93347639"
         width="5.5175138"
         id="rect4412-7"
         style="opacity:1;fill:#000080;fill-opacity:1;fill-rule:nonzero;stroke:none;stroke-width:0.23758769;stroke-linecap:round;stroke-linejoin:miter;stroke-miterlimit:4;stroke-dasharray:none;stroke-opacity:1;paint-order:markers fill stroke" />
      <rect
         y="137.53154"
         x="64.29435"
         height="0.93347639"
         width="3.7797623"
         id="rect4412-70"
         style="opacity:1;fill:#000080;fill-opacity:1;fill-rule:nonzero;stroke:none;stroke-width:0.19664569;stroke-linecap:round;stroke-linejoin:miter;stroke-miterlimit:4;stroke-dasharray:none;stroke-opacity:1;paint-order:markers fill stroke" />
    </g>
  </g>
</svg>
