<?xml version="1.0" encoding="UTF-8" standalone="no"?>
<!-- Created with Inkscape (http://www.inkscape.org/) -->

<svg
   xmlns:dc="http://purl.org/dc/elements/1.1/"
   xmlns:cc="http://creativecommons.org/ns#"
   xmlns:rdf="http://www.w3.org/1999/02/22-rdf-syntax-ns#"
   xmlns:svg="http://www.w3.org/2000/svg"
   xmlns="http://www.w3.org/2000/svg"
   xmlns:sodipodi="http://sodipodi.sourceforge.net/DTD/sodipodi-0.dtd"
   xmlns:inkscape="http://www.inkscape.org/namespaces/inkscape"
   width="25.665001mm"
   height="25.159321mm"
   viewBox="0 0 25.665001 25.159322"
   version="1.1"
   id="svg3624"
   inkscape:version="0.92.4 (5da689c313, 2019-01-14)"
   sodipodi:docname="receive-offer.svg">
  <defs
     id="defs3618" />
  <sodipodi:namedview
     id="base"
     pagecolor="#ffffff"
     bordercolor="#666666"
     borderopacity="1.0"
     inkscape:pageopacity="0.0"
     inkscape:pageshadow="2"
     inkscape:zoom="3.959798"
     inkscape:cx="37.939025"
     inkscape:cy="50.577455"
     inkscape:document-units="mm"
     inkscape:current-layer="g4513"
     showgrid="false"
     inkscape:window-width="1600"
     inkscape:window-height="838"
     inkscape:window-x="-8"
     inkscape:window-y="-8"
     inkscape:window-maximized="1" />
  <metadata
     id="metadata3621">
    <rdf:RDF>
      <cc:Work
         rdf:about="">
        <dc:format>image/svg+xml</dc:format>
        <dc:type
           rdf:resource="http://purl.org/dc/dcmitype/StillImage" />
        <dc:title></dc:title>
      </cc:Work>
    </rdf:RDF>
  </metadata>
  <g
     inkscape:label="Layer 1"
     inkscape:groupmode="layer"
     id="layer1"
     transform="translate(-115.94687,-127.33833)">
    <g
       id="g4513"
       transform="matrix(0.38087599,0,0,0.38087599,84.152424,129.23006)">
      <g
         id="g4489"
         transform="translate(84.952276,-4.0030469)">
        <path
           id="path4475"
           d="M 61,8 H 56 V 6 A 4,4 0 0 0 52,2 H 23 a 5.006,5.006 0 0 0 -5,5 v 11 h -2 a 3,3 0 0 0 -3,3 v 3.2 a 4,4 0 0 0 -2.575,1.95 l -6.3,11.37 A 1.008,1.008 0 0 0 4,38 L 4.01,48.041 2.687,50.43 a 2,2 0 0 0 0.779,2.724 L 19.2,61.872 a 1.987,1.987 0 0 0 1.532,0.178 1.946,1.946 0 0 0 1.182,-0.945 l 1.377,-2.48 4.372,-3.877 A 0.99,0.99 0 0 0 27.848,54.53 L 32.554,47 H 54 a 3,3 0 0 0 3,-3 V 21 a 3,3 0 0 0 -3,-3 h -4 v -2 h 8 a 4,4 0 0 0 4,-4 V 9 A 1,1 0 0 0 61,8 Z M 23,4 H 48.556 A 3.959,3.959 0 0 0 48,6 V 24.42 L 35,31.848 20,23.277 V 7 a 3,3 0 0 1 3,-3 z m -7,16 h 2 v 2.134 L 15.15,20.505 A 0.988,0.988 0 0 1 16,20 Z m 10.229,33.348 -4.392,3.894 a 0.994,0.994 0 0 0 -0.211,0.263 L 20.175,60.125 4.435,51.4 5.885,48.78 A 1,1 0 0 0 6.01,48.3 L 6,38.258 12.174,27.115 a 2.033,2.033 0 0 1 1.8,-1.035 2.017,2.017 0 0 1 1.951,2.01 2.044,2.044 0 0 1 -0.255,0.965 l -2.91,5.25 a 1,1 0 0 0 0.391,1.361 4.984,4.984 0 0 1 1.984,6.734 l -2.941,4.007 1.612,1.184 0.728,-0.992 A 2.973,2.973 0 0 0 16,47 H 30.2 Z M 54,45 H 16 a 0.991,0.991 0 0 1 -0.251,-0.056 l 1.037,-1.412 A 0.8,0.8 0 0 0 16.854,43.425 6.98,6.98 0 0 0 15,34.491 V 34.4 l 2.429,-4.381 a 4.057,4.057 0 0 0 0.5,-1.928 4.012,4.012 0 0 0 -2.072,-3.508 4.2,4.2 0 0 0 -0.858,-0.35 v -1.51 L 34.5,33.868 a 1,1 0 0 0 0.992,0 L 55,22.723 V 44 a 1,1 0 0 1 -1,1 z m 0,-25 a 0.988,0.988 0 0 1 0.85,0.5 L 50,23.277 V 20 Z M 50,6 a 2,2 0 0 1 4,0 v 6 a 3.959,3.959 0 0 0 0.556,2 H 50 Z m 10,6 a 2,2 0 0 1 -4,0 v -2 h 4 z"
           inkscape:connector-curvature="0"
           style="fill:#800000" />
        <rect
           id="rect4477"
           height="2"
           width="4"
           y="7"
           x="24"
           style="fill:#5553a7;fill-opacity:1" />
        <rect
           id="rect4479"
           height="2"
           width="14"
           y="7"
           x="30"
           style="fill:#5553a7;fill-opacity:1" />
        <rect
           id="rect4481"
           height="2"
           width="20"
           y="12"
           x="24"
           style="fill:#5553a7;fill-opacity:1" />
        <rect
           id="rect4483"
           height="2"
           width="20"
           y="17"
           x="24"
           style="fill:#5553a7;fill-opacity:1" />
        <rect
           id="rect4485"
           height="2"
           width="6"
           y="22"
           x="24"
           style="fill:#5553a7;fill-opacity:1" />
        <rect
           id="rect4487"
           height="2"
           width="12"
           y="22"
           x="32"
           style="fill:#5553a7;fill-opacity:1" />
      </g>
    </g>
  </g>
</svg>
