<?xml version="1.0" encoding="UTF-8" standalone="no"?>
<!-- Created with Inkscape (http://www.inkscape.org/) -->

<svg
   xmlns:dc="http://purl.org/dc/elements/1.1/"
   xmlns:cc="http://creativecommons.org/ns#"
   xmlns:rdf="http://www.w3.org/1999/02/22-rdf-syntax-ns#"
   xmlns:svg="http://www.w3.org/2000/svg"
   xmlns="http://www.w3.org/2000/svg"
   xmlns:sodipodi="http://sodipodi.sourceforge.net/DTD/sodipodi-0.dtd"
   xmlns:inkscape="http://www.inkscape.org/namespaces/inkscape"
   width="25.664591mm"
   height="17.348274mm"
   viewBox="0 0 25.66459 17.348275"
   version="1.1"
   id="svg8"
   inkscape:version="0.92.4 (5da689c313, 2019-01-14)"
   sodipodi:docname="support.svg">
  <defs
     id="defs2" />
  <sodipodi:namedview
     id="base"
     pagecolor="#ffffff"
     bordercolor="#666666"
     borderopacity="1.0"
     inkscape:pageopacity="0.0"
     inkscape:pageshadow="2"
     inkscape:zoom="4.9153761"
     inkscape:cx="38.448632"
     inkscape:cy="34.942686"
     inkscape:document-units="mm"
     inkscape:current-layer="layer1"
     showgrid="false"
     inkscape:window-width="1600"
     inkscape:window-height="838"
     inkscape:window-x="-8"
     inkscape:window-y="-8"
     inkscape:window-maximized="1"
     showguides="true"
     inkscape:guide-bbox="true" />
  <metadata
     id="metadata5">
    <rdf:RDF>
      <cc:Work
         rdf:about="">
        <dc:format>image/svg+xml</dc:format>
        <dc:type
           rdf:resource="http://purl.org/dc/dcmitype/StillImage" />
        <dc:title></dc:title>
      </cc:Work>
    </rdf:RDF>
  </metadata>
  <g
     inkscape:label="Layer 1"
     inkscape:groupmode="layer"
     id="layer1"
     transform="translate(-123.88544,-93.038705)">
    <g
       id="g880">
      <path
         sodipodi:nodetypes="ccccsscscsccssscccccscccccccccccccccsscccsccsccs"
         style="fill:#b2d854;fill-opacity:1;stroke-width:0.59631324"
         id="path815"
         d="m 144.15944,108.1457 c -0.74777,-2.41744 -2.70905,-4.22309 -5.25113,-4.84683 -0.44485,-0.49434 -0.5975,-0.81756 -0.64818,-0.97318 0.23792,-0.37032 1.00181,-1.59694 1.47408,-2.738862 h 0.14379 c 0.75674,0 1.30714,-0.436521 1.30714,-1.192641 0,-0.233761 -0.0699,-0.432321 -0.18121,-0.601082 -0.062,-2.361987 -1.65003,-4.7544 -4.27736,-4.7544 -2.6393,0 -4.06926,2.261805 -4.18673,4.593389 -0.18842,0.194951 -0.30768,0.449629 -0.30768,0.762093 0,0.580213 0.32559,0.969604 0.81753,1.120461 0.42279,0.736452 1.31249,1.586192 3.14913,1.705472 0.0931,0.14672 0.24926,0.24927 0.43532,0.24927 0.2904,0 0.52654,-0.23615 0.52654,-0.52655 0,-0.29102 -0.23614,-0.52655 -0.52654,-0.52655 -0.16927,0 -0.31309,0.0858 -0.40967,0.21049 -0.67742,-0.0453 -1.1974,-0.20104 -1.6017,-0.40967 -0.33692,-0.748364 -0.62138,-1.517017 -0.65475,-2.018507 0.87479,-0.354225 3.42521,-1.428176 4.32327,-2.26122 0,0 0.37745,1.336922 1.21946,1.857501 0.009,0.10209 0.0135,0.204644 0.0135,0.306514 0,0.999413 -1.32323,3.229622 -1.83308,4.004262 -0.0395,0.0603 -0.0562,0.13364 -0.0459,0.20508 0.0342,0.2421 0.21051,0.76271 0.99883,1.57965 -0.0768,0.41324 -0.43354,1.65119 -1.93923,1.65776 -1.50984,-0.008 -1.96125,-1.23974 -2.07218,-1.66731 0.0202,-0.005 0.0377,-0.0135 0.058,-0.0159 l -0.009,-0.0368 c 0.89627,-0.94575 0.95648,-1.43832 0.94992,-1.57187 -0.002,-0.0478 -0.0157,-0.0942 -0.0388,-0.13591 -0.0728,-0.12644 -0.16565,-0.29398 -0.26833,-0.48478 -0.28565,-0.0699 -0.5516,-0.1562 -0.80502,-0.25286 0.22064,0.43471 0.41085,0.78 0.50208,0.94039 -0.04,0.12937 -0.18953,0.4687 -0.71734,1.037 -2.53315,0.68575 -4.45389,2.49914 -5.03291,4.79971 -0.0225,0.0888 -0.002,0.18368 0.0543,0.25641 0.0566,0.0739 0.14378,0.1163 0.23554,0.1163 h 14.31392 c 0.0949,0 0.18435,-0.0446 0.2397,-0.12102 0.0566,-0.0763 0.0728,-0.17468 0.0453,-0.26478 z m -7.43246,-14.510689 c 2.25705,0 3.40974,1.980962 3.64052,3.67567 -0.10799,-0.03944 -0.22244,-0.06626 -0.3405,-0.08474 -0.31604,-1.517607 -1.44785,-2.884955 -3.29882,-2.884955 -1.83068,0 -2.95173,1.361375 -3.26778,2.875422 -0.0989,0.01127 -0.1963,0.02794 -0.28923,0.05431 0.21593,-1.655945 1.23855,-3.635712 3.55581,-3.635714 z"
         inkscape:connector-curvature="0" />
      <path
         style="fill:none;stroke:#b2d854;stroke-width:0.32100001;stroke-linecap:butt;stroke-linejoin:miter;stroke-miterlimit:4;stroke-dasharray:none;stroke-opacity:1"
         d="m 123.88544,110.22648 h 25.66459"
         id="path822"
         inkscape:connector-curvature="0" />
    </g>
  </g>
</svg>
