<?xml version="1.0" encoding="UTF-8" standalone="no"?>
<!-- Created with Inkscape (http://www.inkscape.org/) -->

<svg
   xmlns:dc="http://purl.org/dc/elements/1.1/"
   xmlns:cc="http://creativecommons.org/ns#"
   xmlns:rdf="http://www.w3.org/1999/02/22-rdf-syntax-ns#"
   xmlns:svg="http://www.w3.org/2000/svg"
   xmlns="http://www.w3.org/2000/svg"
   xmlns:sodipodi="http://sodipodi.sourceforge.net/DTD/sodipodi-0.dtd"
   xmlns:inkscape="http://www.inkscape.org/namespaces/inkscape"
   width="25.664583mm"
   height="15.872034mm"
   viewBox="0 0 25.664583 15.872034"
   version="1.1"
   id="svg8"
   inkscape:version="0.92.4 (5da689c313, 2019-01-14)"
   sodipodi:docname="visa.svg">
  <defs
     id="defs2" />
  <sodipodi:namedview
     id="base"
     pagecolor="#ffffff"
     bordercolor="#666666"
     borderopacity="1.0"
     inkscape:pageopacity="0.0"
     inkscape:pageshadow="2"
     inkscape:zoom="5.6"
     inkscape:cx="33.313391"
     inkscape:cy="26.105286"
     inkscape:document-units="mm"
     inkscape:current-layer="g850"
     showgrid="false"
     inkscape:window-width="1600"
     inkscape:window-height="838"
     inkscape:window-x="-8"
     inkscape:window-y="-8"
     inkscape:window-maximized="1" />
  <metadata
     id="metadata5">
    <rdf:RDF>
      <cc:Work
         rdf:about="">
        <dc:format>image/svg+xml</dc:format>
        <dc:type
           rdf:resource="http://purl.org/dc/dcmitype/StillImage" />
        <dc:title />
      </cc:Work>
    </rdf:RDF>
  </metadata>
  <g
     inkscape:label="Layer 1"
     inkscape:groupmode="layer"
     id="layer1"
     transform="translate(-294.38142,-200.48099)">
    <g
       id="g850"
       transform="matrix(0.26458333,0,0,0.26458333,158.30045,133.98941)">
      <g
         id="g876"
         transform="matrix(1.0001869,0,0,1.0001869,-0.09612157,-0.058178)">
        <g
           style="fill:#b2d854;fill-opacity:1"
           transform="matrix(1.1511665,0,0,1.1511665,532.12184,250.19986)"
           id="g1635">
          <g
             style="fill:#b2d854;fill-opacity:1"
             id="g1606">
            <path
               style="fill:#b2d854;fill-opacity:1"
               inkscape:connector-curvature="0"
               d="m 25.17,24 h 5.66 a 11.94,11.94 0 0 0 0,-4 h -5.66 a 11.68,11.68 0 0 0 0,4 z"
               id="path1582" />
            <path
               style="fill:#b2d854;fill-opacity:1"
               inkscape:connector-curvature="0"
               d="m 32.85,20 a 13.41,13.41 0 0 1 0,4 h 2.89 A 8.14,8.14 0 0 0 35.91,20.87 7.88,7.88 0 0 0 35.74,20 Z"
               id="path1584" />
            <path
               style="fill:#b2d854;fill-opacity:1"
               inkscape:connector-curvature="0"
               d="M 40,9 H 14 v 38 h 26 a 2,2 0 0 0 2,-2 V 11 A 2,2 0 0 0 40,9 Z m -21.39,9.6 a 10,10 0 1 1 0,6.8 c -0.77,-0.77 -0.78,-6.02 0,-6.8 z M 38,42 H 20 a 1,1 0 0 1 0,-2 h 18 a 1,1 0 0 1 0,2 z"
               id="path1586" />
            <path
               style="fill:#b2d854;fill-opacity:1"
               inkscape:connector-curvature="0"
               d="m 6,13 v 30 a 4,4 0 0 0 4,4 h 2 V 9 h -2 a 4,4 0 0 0 -4,4 z"
               id="path1588" />
            <path
               style="fill:#b2d854;fill-opacity:1"
               inkscape:connector-curvature="0"
               d="M 40,3 A 2,2 0 0 0 37.61,1 C 12.31,7 17.1,5.91 12,7 h 28 z"
               id="path1590" />
            <path
               style="fill:#b2d854;fill-opacity:1"
               inkscape:connector-curvature="0"
               d="M 25,14.59 A 8,8 0 0 0 21.09,18 h 2.48 A 15.18,15.18 0 0 1 25,14.59 Z"
               id="path1592" />
            <path
               style="fill:#b2d854;fill-opacity:1"
               inkscape:connector-curvature="0"
               d="m 30.36,18 a 13,13 0 0 0 -2.14,-4 h -0.44 a 13,13 0 0 0 -2.14,4 z"
               id="path1594" />
            <path
               style="fill:#b2d854;fill-opacity:1"
               inkscape:connector-curvature="0"
               d="M 34.91,18 A 8.14,8.14 0 0 0 31,14.59 15.18,15.18 0 0 1 32.43,18 Z"
               id="path1596" />
            <path
               style="fill:#b2d854;fill-opacity:1"
               inkscape:connector-curvature="0"
               d="M 34.91,26 H 32.43 A 15.18,15.18 0 0 1 31,29.41 8,8 0 0 0 34.91,26 Z"
               id="path1598" />
            <path
               style="fill:#b2d854;fill-opacity:1"
               inkscape:connector-curvature="0"
               d="m 25.64,26 a 13.11,13.11 0 0 0 2.12,4 3.84,3.84 0 0 0 0.48,0 13.75,13.75 0 0 0 2.12,-4 z"
               id="path1600" />
            <path
               style="fill:#b2d854;fill-opacity:1"
               inkscape:connector-curvature="0"
               d="M 21.09,26 A 8.07,8.07 0 0 0 25,29.41 15.18,15.18 0 0 1 23.57,26 Z"
               id="path1602" />
            <path
               style="fill:#b2d854;fill-opacity:1"
               inkscape:connector-curvature="0"
               d="m 23.15,20 h -2.89 a 7.75,7.75 0 0 0 0,4 h 2.89 a 13.41,13.41 0 0 1 0,-4 z"
               id="path1604" />
          </g>
        </g>
        <path
           inkscape:connector-curvature="0"
           id="path827"
           d="m 514.3218,310.82263 h 96.98188"
           style="fill:none;stroke:#b2d854;stroke-width:0.94589943px;stroke-linecap:butt;stroke-linejoin:miter;stroke-opacity:1" />
      </g>
    </g>
  </g>
</svg>
